<?xml version="1.0" encoding="utf-8" standalone="no"?>
<!DOCTYPE svg PUBLIC "-//W3C//DTD SVG 1.1//EN"
  "http://www.w3.org/Graphics/SVG/1.1/DTD/svg11.dtd">
<!-- Created with matplotlib (http://matplotlib.org/) -->
<svg height="150.192pt" version="1.1" viewBox="0 0 243 150.192" width="243pt" xmlns="http://www.w3.org/2000/svg" xmlns:xlink="http://www.w3.org/1999/xlink">
 <defs>
  <style type="text/css">
*{stroke-linecap:butt;stroke-linejoin:round;}
  </style>
 </defs>
 <g id="figure_1">
  <g id="patch_1">
   <path d="M 0 150.192 
L 243 150.192 
L 243 0 
L 0 0 
z
" style="fill:#ffffff;"/>
  </g>
  <g id="axes_1">
   <g id="patch_2">
    <path d="M 38.3925 116.052 
L 202.2675 116.052 
L 202.2675 10.8 
L 38.3925 10.8 
z
" style="fill:#ffffff;"/>
   </g>
   <g id="matplotlib.axis_1">
    <g id="xtick_1">
     <g id="line2d_1">
      <defs>
       <path d="M 0 0 
L 0 -3.5 
" id="m48451422ae" style="stroke:#000000;stroke-width:0.8;"/>
      </defs>
      <g>
       <use style="stroke:#000000;stroke-width:0.8;" x="48.470781" xlink:href="#m48451422ae" y="116.052"/>
      </g>
     </g>
     <g id="line2d_2">
      <defs>
       <path d="M 0 0 
L 0 3.5 
" id="m3b82115ea8" style="stroke:#000000;stroke-width:0.8;"/>
      </defs>
      <g>
       <use style="stroke:#000000;stroke-width:0.8;" x="48.470781" xlink:href="#m3b82115ea8" y="10.8"/>
      </g>
     </g>
     <g id="text_1">
      <!-- −10 -->
      <defs>
       <path d="M 52.828125 31.203125 
L 5.5625 31.203125 
L 5.5625 39.40625 
L 52.828125 39.40625 
z
" id="ArialMT-2212"/>
       <path d="M 37.25 0 
L 28.46875 0 
L 28.46875 56 
Q 25.296875 52.984375 20.140625 49.953125 
Q 14.984375 46.921875 10.890625 45.40625 
L 10.890625 53.90625 
Q 18.265625 57.375 23.78125 62.296875 
Q 29.296875 67.234375 31.59375 71.875 
L 37.25 71.875 
z
" id="ArialMT-31"/>
       <path d="M 4.15625 35.296875 
Q 4.15625 48 6.765625 55.734375 
Q 9.375 63.484375 14.515625 67.671875 
Q 19.671875 71.875 27.484375 71.875 
Q 33.25 71.875 37.59375 69.546875 
Q 41.9375 67.234375 44.765625 62.859375 
Q 47.609375 58.5 49.21875 52.21875 
Q 50.828125 45.953125 50.828125 35.296875 
Q 50.828125 22.703125 48.234375 14.96875 
Q 45.65625 7.234375 40.5 3 
Q 35.359375 -1.21875 27.484375 -1.21875 
Q 17.140625 -1.21875 11.234375 6.203125 
Q 4.15625 15.140625 4.15625 35.296875 
z
M 13.1875 35.296875 
Q 13.1875 17.671875 17.3125 11.828125 
Q 21.4375 6 27.484375 6 
Q 33.546875 6 37.671875 11.859375 
Q 41.796875 17.71875 41.796875 35.296875 
Q 41.796875 52.984375 37.671875 58.78125 
Q 33.546875 64.59375 27.390625 64.59375 
Q 21.34375 64.59375 17.71875 59.46875 
Q 13.1875 52.9375 13.1875 35.296875 
z
" id="ArialMT-30"/>
      </defs>
      <g transform="translate(41.685781 125.27825)scale(0.08 -0.08)">
       <use xlink:href="#ArialMT-2212"/>
       <use x="58.398438" xlink:href="#ArialMT-31"/>
       <use x="114.013672" xlink:href="#ArialMT-30"/>
      </g>
     </g>
    </g>
    <g id="xtick_2">
     <g id="line2d_3">
      <g>
       <use style="stroke:#000000;stroke-width:0.8;" x="83.068383" xlink:href="#m48451422ae" y="116.052"/>
      </g>
     </g>
     <g id="line2d_4">
      <g>
       <use style="stroke:#000000;stroke-width:0.8;" x="83.068383" xlink:href="#m3b82115ea8" y="10.8"/>
      </g>
     </g>
     <g id="text_2">
      <!-- −5 -->
      <defs>
       <path d="M 4.15625 18.75 
L 13.375 19.53125 
Q 14.40625 12.796875 18.140625 9.390625 
Q 21.875 6 27.15625 6 
Q 33.5 6 37.890625 10.78125 
Q 42.28125 15.578125 42.28125 23.484375 
Q 42.28125 31 38.0625 35.34375 
Q 33.84375 39.703125 27 39.703125 
Q 22.75 39.703125 19.328125 37.765625 
Q 15.921875 35.84375 13.96875 32.765625 
L 5.71875 33.84375 
L 12.640625 70.609375 
L 48.25 70.609375 
L 48.25 62.203125 
L 19.671875 62.203125 
L 15.828125 42.96875 
Q 22.265625 47.46875 29.34375 47.46875 
Q 38.71875 47.46875 45.15625 40.96875 
Q 51.609375 34.46875 51.609375 24.265625 
Q 51.609375 14.546875 45.953125 7.46875 
Q 39.0625 -1.21875 27.15625 -1.21875 
Q 17.390625 -1.21875 11.203125 4.25 
Q 5.03125 9.71875 4.15625 18.75 
z
" id="ArialMT-35"/>
      </defs>
      <g transform="translate(78.507758 125.27825)scale(0.08 -0.08)">
       <use xlink:href="#ArialMT-2212"/>
       <use x="58.398438" xlink:href="#ArialMT-35"/>
      </g>
     </g>
    </g>
    <g id="xtick_3">
     <g id="line2d_5">
      <g>
       <use style="stroke:#000000;stroke-width:0.8;" x="117.665985" xlink:href="#m48451422ae" y="116.052"/>
      </g>
     </g>
     <g id="line2d_6">
      <g>
       <use style="stroke:#000000;stroke-width:0.8;" x="117.665985" xlink:href="#m3b82115ea8" y="10.8"/>
      </g>
     </g>
     <g id="text_3">
      <!-- 0 -->
      <g transform="translate(115.44161 125.27825)scale(0.08 -0.08)">
       <use xlink:href="#ArialMT-30"/>
      </g>
     </g>
    </g>
    <g id="xtick_4">
     <g id="line2d_7">
      <g>
       <use style="stroke:#000000;stroke-width:0.8;" x="152.263586" xlink:href="#m48451422ae" y="116.052"/>
      </g>
     </g>
     <g id="line2d_8">
      <g>
       <use style="stroke:#000000;stroke-width:0.8;" x="152.263586" xlink:href="#m3b82115ea8" y="10.8"/>
      </g>
     </g>
     <g id="text_4">
      <!-- 5 -->
      <g transform="translate(150.039211 125.27825)scale(0.08 -0.08)">
       <use xlink:href="#ArialMT-35"/>
      </g>
     </g>
    </g>
    <g id="xtick_5">
     <g id="line2d_9">
      <g>
       <use style="stroke:#000000;stroke-width:0.8;" x="186.861188" xlink:href="#m48451422ae" y="116.052"/>
      </g>
     </g>
     <g id="line2d_10">
      <g>
       <use style="stroke:#000000;stroke-width:0.8;" x="186.861188" xlink:href="#m3b82115ea8" y="10.8"/>
      </g>
     </g>
     <g id="text_5">
      <!-- 10 -->
      <g transform="translate(182.412438 125.27825)scale(0.08 -0.08)">
       <use xlink:href="#ArialMT-31"/>
       <use x="55.615234" xlink:href="#ArialMT-30"/>
      </g>
     </g>
    </g>
    <g id="text_6">
     <!-- applied field (V/μm) -->
     <defs>
      <path d="M 40.4375 6.390625 
Q 35.546875 2.25 31.03125 0.53125 
Q 26.515625 -1.171875 21.34375 -1.171875 
Q 12.796875 -1.171875 8.203125 3 
Q 3.609375 7.171875 3.609375 13.671875 
Q 3.609375 17.484375 5.34375 20.625 
Q 7.078125 23.78125 9.890625 25.6875 
Q 12.703125 27.59375 16.21875 28.5625 
Q 18.796875 29.25 24.03125 29.890625 
Q 34.671875 31.15625 39.703125 32.90625 
Q 39.75 34.71875 39.75 35.203125 
Q 39.75 40.578125 37.25 42.78125 
Q 33.890625 45.75 27.25 45.75 
Q 21.046875 45.75 18.09375 43.578125 
Q 15.140625 41.40625 13.71875 35.890625 
L 5.125 37.0625 
Q 6.296875 42.578125 8.984375 45.96875 
Q 11.671875 49.359375 16.75 51.1875 
Q 21.828125 53.03125 28.515625 53.03125 
Q 35.15625 53.03125 39.296875 51.46875 
Q 43.453125 49.90625 45.40625 47.53125 
Q 47.359375 45.171875 48.140625 41.546875 
Q 48.578125 39.3125 48.578125 33.453125 
L 48.578125 21.734375 
Q 48.578125 9.46875 49.140625 6.21875 
Q 49.703125 2.984375 51.375 0 
L 42.1875 0 
Q 40.828125 2.734375 40.4375 6.390625 
z
M 39.703125 26.03125 
Q 34.90625 24.078125 25.34375 22.703125 
Q 19.921875 21.921875 17.671875 20.9375 
Q 15.4375 19.96875 14.203125 18.09375 
Q 12.984375 16.21875 12.984375 13.921875 
Q 12.984375 10.40625 15.640625 8.0625 
Q 18.3125 5.71875 23.4375 5.71875 
Q 28.515625 5.71875 32.46875 7.9375 
Q 36.421875 10.15625 38.28125 14.015625 
Q 39.703125 17 39.703125 22.796875 
z
" id="ArialMT-61"/>
      <path d="M 6.59375 -19.875 
L 6.59375 51.859375 
L 14.59375 51.859375 
L 14.59375 45.125 
Q 17.4375 49.078125 21 51.046875 
Q 24.5625 53.03125 29.640625 53.03125 
Q 36.28125 53.03125 41.359375 49.609375 
Q 46.4375 46.1875 49.015625 39.953125 
Q 51.609375 33.734375 51.609375 26.3125 
Q 51.609375 18.359375 48.75 11.984375 
Q 45.90625 5.609375 40.453125 2.21875 
Q 35.015625 -1.171875 29 -1.171875 
Q 24.609375 -1.171875 21.109375 0.6875 
Q 17.625 2.546875 15.375 5.375 
L 15.375 -19.875 
z
M 14.546875 25.640625 
Q 14.546875 15.625 18.59375 10.84375 
Q 22.65625 6.0625 28.421875 6.0625 
Q 34.28125 6.0625 38.453125 11.015625 
Q 42.625 15.96875 42.625 26.375 
Q 42.625 36.28125 38.546875 41.203125 
Q 34.46875 46.140625 28.8125 46.140625 
Q 23.1875 46.140625 18.859375 40.890625 
Q 14.546875 35.640625 14.546875 25.640625 
z
" id="ArialMT-70"/>
      <path d="M 6.390625 0 
L 6.390625 71.578125 
L 15.1875 71.578125 
L 15.1875 0 
z
" id="ArialMT-6c"/>
      <path d="M 6.640625 61.46875 
L 6.640625 71.578125 
L 15.4375 71.578125 
L 15.4375 61.46875 
z
M 6.640625 0 
L 6.640625 51.859375 
L 15.4375 51.859375 
L 15.4375 0 
z
" id="ArialMT-69"/>
      <path d="M 42.09375 16.703125 
L 51.171875 15.578125 
Q 49.03125 7.625 43.21875 3.21875 
Q 37.40625 -1.171875 28.375 -1.171875 
Q 17 -1.171875 10.328125 5.828125 
Q 3.65625 12.84375 3.65625 25.484375 
Q 3.65625 38.578125 10.390625 45.796875 
Q 17.140625 53.03125 27.875 53.03125 
Q 38.28125 53.03125 44.875 45.953125 
Q 51.46875 38.875 51.46875 26.03125 
Q 51.46875 25.25 51.421875 23.6875 
L 12.75 23.6875 
Q 13.234375 15.140625 17.578125 10.59375 
Q 21.921875 6.0625 28.421875 6.0625 
Q 33.25 6.0625 36.671875 8.59375 
Q 40.09375 11.140625 42.09375 16.703125 
z
M 13.234375 30.90625 
L 42.1875 30.90625 
Q 41.609375 37.453125 38.875 40.71875 
Q 34.671875 45.796875 27.984375 45.796875 
Q 21.921875 45.796875 17.796875 41.75 
Q 13.671875 37.703125 13.234375 30.90625 
z
" id="ArialMT-65"/>
      <path d="M 40.234375 0 
L 40.234375 6.546875 
Q 35.296875 -1.171875 25.734375 -1.171875 
Q 19.53125 -1.171875 14.328125 2.25 
Q 9.125 5.671875 6.265625 11.796875 
Q 3.421875 17.921875 3.421875 25.875 
Q 3.421875 33.640625 6 39.96875 
Q 8.59375 46.296875 13.765625 49.65625 
Q 18.953125 53.03125 25.34375 53.03125 
Q 30.03125 53.03125 33.6875 51.046875 
Q 37.359375 49.078125 39.65625 45.90625 
L 39.65625 71.578125 
L 48.390625 71.578125 
L 48.390625 0 
z
M 12.453125 25.875 
Q 12.453125 15.921875 16.640625 10.984375 
Q 20.84375 6.0625 26.5625 6.0625 
Q 32.328125 6.0625 36.34375 10.765625 
Q 40.375 15.484375 40.375 25.140625 
Q 40.375 35.796875 36.265625 40.765625 
Q 32.171875 45.75 26.171875 45.75 
Q 20.3125 45.75 16.375 40.96875 
Q 12.453125 36.1875 12.453125 25.875 
z
" id="ArialMT-64"/>
      <path id="ArialMT-20"/>
      <path d="M 8.6875 0 
L 8.6875 45.015625 
L 0.921875 45.015625 
L 0.921875 51.859375 
L 8.6875 51.859375 
L 8.6875 57.375 
Q 8.6875 62.59375 9.625 65.140625 
Q 10.890625 68.5625 14.078125 70.671875 
Q 17.28125 72.796875 23.046875 72.796875 
Q 26.765625 72.796875 31.25 71.921875 
L 29.9375 64.265625 
Q 27.203125 64.75 24.75 64.75 
Q 20.75 64.75 19.09375 63.03125 
Q 17.4375 61.328125 17.4375 56.640625 
L 17.4375 51.859375 
L 27.546875 51.859375 
L 27.546875 45.015625 
L 17.4375 45.015625 
L 17.4375 0 
z
" id="ArialMT-66"/>
      <path d="M 23.390625 -21.046875 
Q 16.109375 -11.859375 11.078125 0.4375 
Q 6.0625 12.75 6.0625 25.921875 
Q 6.0625 37.546875 9.8125 48.1875 
Q 14.203125 60.546875 23.390625 72.796875 
L 29.6875 72.796875 
Q 23.78125 62.640625 21.875 58.296875 
Q 18.890625 51.5625 17.1875 44.234375 
Q 15.09375 35.109375 15.09375 25.875 
Q 15.09375 2.390625 29.6875 -21.046875 
z
" id="ArialMT-28"/>
      <path d="M 28.171875 0 
L 0.4375 71.578125 
L 10.6875 71.578125 
L 29.296875 19.578125 
Q 31.546875 13.328125 33.0625 7.859375 
Q 34.71875 13.71875 36.921875 19.578125 
L 56.25 71.578125 
L 65.921875 71.578125 
L 37.890625 0 
z
" id="ArialMT-56"/>
      <path d="M 0 -1.21875 
L 20.75 72.796875 
L 27.78125 72.796875 
L 7.078125 -1.21875 
z
" id="ArialMT-2f"/>
      <path d="M 49.703125 51.859375 
L 49.703125 0 
L 41.84375 0 
L 41.84375 6.15625 
Q 39.3125 2.25 36.8125 0.78125 
Q 33.40625 -1.21875 28.859375 -1.21875 
Q 24.8125 -1.21875 21.6875 0.390625 
Q 19.34375 1.609375 16.5 5.21875 
L 16.5 -19.875 
L 7.8125 -19.875 
L 7.8125 51.859375 
L 16.5 51.859375 
L 16.5 29.890625 
Q 16.5 17.921875 17.765625 14.375 
Q 19.046875 10.84375 21.890625 8.78125 
Q 24.75 6.734375 28.46875 6.734375 
Q 32.375 6.734375 35.453125 8.875 
Q 38.53125 11.03125 39.796875 14.421875 
Q 41.0625 17.828125 41.0625 29.734375 
L 41.0625 51.859375 
z
" id="ArialMT-3bc"/>
      <path d="M 6.59375 0 
L 6.59375 51.859375 
L 14.453125 51.859375 
L 14.453125 44.578125 
Q 16.890625 48.390625 20.9375 50.703125 
Q 25 53.03125 30.171875 53.03125 
Q 35.9375 53.03125 39.625 50.640625 
Q 43.3125 48.25 44.828125 43.953125 
Q 50.984375 53.03125 60.84375 53.03125 
Q 68.5625 53.03125 72.703125 48.75 
Q 76.859375 44.484375 76.859375 35.59375 
L 76.859375 0 
L 68.109375 0 
L 68.109375 32.671875 
Q 68.109375 37.9375 67.25 40.25 
Q 66.40625 42.578125 64.15625 43.984375 
Q 61.921875 45.40625 58.890625 45.40625 
Q 53.421875 45.40625 49.796875 41.765625 
Q 46.1875 38.140625 46.1875 30.125 
L 46.1875 0 
L 37.40625 0 
L 37.40625 33.6875 
Q 37.40625 39.546875 35.25 42.46875 
Q 33.109375 45.40625 28.21875 45.40625 
Q 24.515625 45.40625 21.359375 43.453125 
Q 18.21875 41.5 16.796875 37.734375 
Q 15.375 33.984375 15.375 26.90625 
L 15.375 0 
z
" id="ArialMT-6d"/>
      <path d="M 12.359375 -21.046875 
L 6.0625 -21.046875 
Q 20.65625 2.390625 20.65625 25.875 
Q 20.65625 35.0625 18.5625 44.09375 
Q 16.890625 51.421875 13.921875 58.15625 
Q 12.015625 62.546875 6.0625 72.796875 
L 12.359375 72.796875 
Q 21.53125 60.546875 25.921875 48.1875 
Q 29.6875 37.546875 29.6875 25.921875 
Q 29.6875 12.75 24.625 0.4375 
Q 19.578125 -11.859375 12.359375 -21.046875 
z
" id="ArialMT-29"/>
     </defs>
     <g transform="translate(77.155781 138.147937)scale(0.1 -0.1)">
      <use xlink:href="#ArialMT-61"/>
      <use x="55.615234" xlink:href="#ArialMT-70"/>
      <use x="111.230469" xlink:href="#ArialMT-70"/>
      <use x="166.845703" xlink:href="#ArialMT-6c"/>
      <use x="189.0625" xlink:href="#ArialMT-69"/>
      <use x="211.279297" xlink:href="#ArialMT-65"/>
      <use x="266.894531" xlink:href="#ArialMT-64"/>
      <use x="322.509766" xlink:href="#ArialMT-20"/>
      <use x="350.292969" xlink:href="#ArialMT-66"/>
      <use x="378.076172" xlink:href="#ArialMT-69"/>
      <use x="400.292969" xlink:href="#ArialMT-65"/>
      <use x="455.908203" xlink:href="#ArialMT-6c"/>
      <use x="478.125" xlink:href="#ArialMT-64"/>
      <use x="533.740234" xlink:href="#ArialMT-20"/>
      <use x="561.523438" xlink:href="#ArialMT-28"/>
      <use x="594.824219" xlink:href="#ArialMT-56"/>
      <use x="661.523438" xlink:href="#ArialMT-2f"/>
      <use x="689.306641" xlink:href="#ArialMT-3bc"/>
      <use x="746.923828" xlink:href="#ArialMT-6d"/>
      <use x="830.224609" xlink:href="#ArialMT-29"/>
     </g>
    </g>
   </g>
   <g id="matplotlib.axis_2">
    <g id="ytick_1">
     <g id="line2d_11">
      <defs>
       <path d="M 0 0 
L 3.5 0 
" id="ma7aaa899a4" style="stroke:#000000;stroke-width:0.8;"/>
      </defs>
      <g>
       <use style="stroke:#000000;stroke-width:0.8;" x="38.3925" xlink:href="#ma7aaa899a4" y="111.267818"/>
      </g>
     </g>
     <g id="text_7">
      <!-- 0.0 -->
      <defs>
       <path d="M 9.078125 0 
L 9.078125 10.015625 
L 19.09375 10.015625 
L 19.09375 0 
z
" id="ArialMT-2e"/>
      </defs>
      <g style="fill:#d62728;" transform="translate(23.7725 114.130943)scale(0.08 -0.08)">
       <use xlink:href="#ArialMT-30"/>
       <use x="55.615234" xlink:href="#ArialMT-2e"/>
       <use x="83.398438" xlink:href="#ArialMT-30"/>
      </g>
     </g>
    </g>
    <g id="ytick_2">
     <g id="line2d_12">
      <g>
       <use style="stroke:#000000;stroke-width:0.8;" x="38.3925" xlink:href="#ma7aaa899a4" y="92.138624"/>
      </g>
     </g>
     <g id="text_8">
      <!-- 0.2 -->
      <defs>
       <path d="M 50.34375 8.453125 
L 50.34375 0 
L 3.03125 0 
Q 2.9375 3.171875 4.046875 6.109375 
Q 5.859375 10.9375 9.828125 15.625 
Q 13.8125 20.3125 21.34375 26.46875 
Q 33.015625 36.03125 37.109375 41.625 
Q 41.21875 47.21875 41.21875 52.203125 
Q 41.21875 57.421875 37.46875 61 
Q 33.734375 64.59375 27.734375 64.59375 
Q 21.390625 64.59375 17.578125 60.78125 
Q 13.765625 56.984375 13.71875 50.25 
L 4.6875 51.171875 
Q 5.609375 61.28125 11.65625 66.578125 
Q 17.71875 71.875 27.9375 71.875 
Q 38.234375 71.875 44.234375 66.15625 
Q 50.25 60.453125 50.25 52 
Q 50.25 47.703125 48.484375 43.546875 
Q 46.734375 39.40625 42.65625 34.8125 
Q 38.578125 30.21875 29.109375 22.21875 
Q 21.1875 15.578125 18.9375 13.203125 
Q 16.703125 10.84375 15.234375 8.453125 
z
" id="ArialMT-32"/>
      </defs>
      <g style="fill:#d62728;" transform="translate(23.7725 95.001749)scale(0.08 -0.08)">
       <use xlink:href="#ArialMT-30"/>
       <use x="55.615234" xlink:href="#ArialMT-2e"/>
       <use x="83.398438" xlink:href="#ArialMT-32"/>
      </g>
     </g>
    </g>
    <g id="ytick_3">
     <g id="line2d_13">
      <g>
       <use style="stroke:#000000;stroke-width:0.8;" x="38.3925" xlink:href="#ma7aaa899a4" y="73.00943"/>
      </g>
     </g>
     <g id="text_9">
      <!-- 0.4 -->
      <defs>
       <path d="M 32.328125 0 
L 32.328125 17.140625 
L 1.265625 17.140625 
L 1.265625 25.203125 
L 33.9375 71.578125 
L 41.109375 71.578125 
L 41.109375 25.203125 
L 50.78125 25.203125 
L 50.78125 17.140625 
L 41.109375 17.140625 
L 41.109375 0 
z
M 32.328125 25.203125 
L 32.328125 57.46875 
L 9.90625 25.203125 
z
" id="ArialMT-34"/>
      </defs>
      <g style="fill:#d62728;" transform="translate(23.7725 75.872555)scale(0.08 -0.08)">
       <use xlink:href="#ArialMT-30"/>
       <use x="55.615234" xlink:href="#ArialMT-2e"/>
       <use x="83.398438" xlink:href="#ArialMT-34"/>
      </g>
     </g>
    </g>
    <g id="ytick_4">
     <g id="line2d_14">
      <g>
       <use style="stroke:#000000;stroke-width:0.8;" x="38.3925" xlink:href="#ma7aaa899a4" y="53.880235"/>
      </g>
     </g>
     <g id="text_10">
      <!-- 0.6 -->
      <defs>
       <path d="M 49.75 54.046875 
L 41.015625 53.375 
Q 39.84375 58.546875 37.703125 60.890625 
Q 34.125 64.65625 28.90625 64.65625 
Q 24.703125 64.65625 21.53125 62.3125 
Q 17.390625 59.28125 14.984375 53.46875 
Q 12.59375 47.65625 12.5 36.921875 
Q 15.671875 41.75 20.265625 44.09375 
Q 24.859375 46.4375 29.890625 46.4375 
Q 38.671875 46.4375 44.84375 39.96875 
Q 51.03125 33.5 51.03125 23.25 
Q 51.03125 16.5 48.125 10.71875 
Q 45.21875 4.9375 40.140625 1.859375 
Q 35.0625 -1.21875 28.609375 -1.21875 
Q 17.625 -1.21875 10.6875 6.859375 
Q 3.765625 14.9375 3.765625 33.5 
Q 3.765625 54.25 11.421875 63.671875 
Q 18.109375 71.875 29.4375 71.875 
Q 37.890625 71.875 43.28125 67.140625 
Q 48.6875 62.40625 49.75 54.046875 
z
M 13.875 23.1875 
Q 13.875 18.65625 15.796875 14.5 
Q 17.71875 10.359375 21.1875 8.171875 
Q 24.65625 6 28.46875 6 
Q 34.03125 6 38.03125 10.484375 
Q 42.046875 14.984375 42.046875 22.703125 
Q 42.046875 30.125 38.078125 34.390625 
Q 34.125 38.671875 28.125 38.671875 
Q 22.171875 38.671875 18.015625 34.390625 
Q 13.875 30.125 13.875 23.1875 
z
" id="ArialMT-36"/>
      </defs>
      <g style="fill:#d62728;" transform="translate(23.7725 56.74336)scale(0.08 -0.08)">
       <use xlink:href="#ArialMT-30"/>
       <use x="55.615234" xlink:href="#ArialMT-2e"/>
       <use x="83.398438" xlink:href="#ArialMT-36"/>
      </g>
     </g>
    </g>
    <g id="ytick_5">
     <g id="line2d_15">
      <g>
       <use style="stroke:#000000;stroke-width:0.8;" x="38.3925" xlink:href="#ma7aaa899a4" y="34.751041"/>
      </g>
     </g>
     <g id="text_11">
      <!-- 0.8 -->
      <defs>
       <path d="M 17.671875 38.8125 
Q 12.203125 40.828125 9.5625 44.53125 
Q 6.9375 48.25 6.9375 53.421875 
Q 6.9375 61.234375 12.546875 66.546875 
Q 18.171875 71.875 27.484375 71.875 
Q 36.859375 71.875 42.578125 66.421875 
Q 48.296875 60.984375 48.296875 53.171875 
Q 48.296875 48.1875 45.671875 44.5 
Q 43.0625 40.828125 37.75 38.8125 
Q 44.34375 36.671875 47.78125 31.875 
Q 51.21875 27.09375 51.21875 20.453125 
Q 51.21875 11.28125 44.71875 5.03125 
Q 38.234375 -1.21875 27.640625 -1.21875 
Q 17.046875 -1.21875 10.546875 5.046875 
Q 4.046875 11.328125 4.046875 20.703125 
Q 4.046875 27.6875 7.59375 32.390625 
Q 11.140625 37.109375 17.671875 38.8125 
z
M 15.921875 53.71875 
Q 15.921875 48.640625 19.1875 45.40625 
Q 22.46875 42.1875 27.6875 42.1875 
Q 32.765625 42.1875 36.015625 45.375 
Q 39.265625 48.578125 39.265625 53.21875 
Q 39.265625 58.0625 35.90625 61.359375 
Q 32.5625 64.65625 27.59375 64.65625 
Q 22.5625 64.65625 19.234375 61.421875 
Q 15.921875 58.203125 15.921875 53.71875 
z
M 13.09375 20.65625 
Q 13.09375 16.890625 14.875 13.375 
Q 16.65625 9.859375 20.171875 7.921875 
Q 23.6875 6 27.734375 6 
Q 34.03125 6 38.125 10.046875 
Q 42.234375 14.109375 42.234375 20.359375 
Q 42.234375 26.703125 38.015625 30.859375 
Q 33.796875 35.015625 27.4375 35.015625 
Q 21.234375 35.015625 17.15625 30.90625 
Q 13.09375 26.8125 13.09375 20.65625 
z
" id="ArialMT-38"/>
      </defs>
      <g style="fill:#d62728;" transform="translate(23.7725 37.614166)scale(0.08 -0.08)">
       <use xlink:href="#ArialMT-30"/>
       <use x="55.615234" xlink:href="#ArialMT-2e"/>
       <use x="83.398438" xlink:href="#ArialMT-38"/>
      </g>
     </g>
    </g>
    <g id="ytick_6">
     <g id="line2d_16">
      <g>
       <use style="stroke:#000000;stroke-width:0.8;" x="38.3925" xlink:href="#ma7aaa899a4" y="15.621847"/>
      </g>
     </g>
     <g id="text_12">
      <!-- 1.0 -->
      <g style="fill:#d62728;" transform="translate(23.7725 18.484972)scale(0.08 -0.08)">
       <use xlink:href="#ArialMT-31"/>
       <use x="55.615234" xlink:href="#ArialMT-2e"/>
       <use x="83.398438" xlink:href="#ArialMT-30"/>
      </g>
     </g>
    </g>
    <g id="text_13">
     <!-- polarization (a.u) -->
     <defs>
      <path d="M 3.328125 25.921875 
Q 3.328125 40.328125 11.328125 47.265625 
Q 18.015625 53.03125 27.640625 53.03125 
Q 38.328125 53.03125 45.109375 46.015625 
Q 51.90625 39.015625 51.90625 26.65625 
Q 51.90625 16.65625 48.90625 10.90625 
Q 45.90625 5.171875 40.15625 2 
Q 34.421875 -1.171875 27.640625 -1.171875 
Q 16.75 -1.171875 10.03125 5.8125 
Q 3.328125 12.796875 3.328125 25.921875 
z
M 12.359375 25.921875 
Q 12.359375 15.96875 16.703125 11.015625 
Q 21.046875 6.0625 27.640625 6.0625 
Q 34.1875 6.0625 38.53125 11.03125 
Q 42.875 16.015625 42.875 26.21875 
Q 42.875 35.84375 38.5 40.796875 
Q 34.125 45.75 27.640625 45.75 
Q 21.046875 45.75 16.703125 40.8125 
Q 12.359375 35.890625 12.359375 25.921875 
z
" id="ArialMT-6f"/>
      <path d="M 6.5 0 
L 6.5 51.859375 
L 14.40625 51.859375 
L 14.40625 44 
Q 17.4375 49.515625 20 51.265625 
Q 22.5625 53.03125 25.640625 53.03125 
Q 30.078125 53.03125 34.671875 50.203125 
L 31.640625 42.046875 
Q 28.421875 43.953125 25.203125 43.953125 
Q 22.3125 43.953125 20.015625 42.21875 
Q 17.71875 40.484375 16.75 37.40625 
Q 15.28125 32.71875 15.28125 27.15625 
L 15.28125 0 
z
" id="ArialMT-72"/>
      <path d="M 1.953125 0 
L 1.953125 7.125 
L 34.96875 45.015625 
Q 29.34375 44.734375 25.046875 44.734375 
L 3.90625 44.734375 
L 3.90625 51.859375 
L 46.296875 51.859375 
L 46.296875 46.046875 
L 18.21875 13.140625 
L 12.796875 7.125 
Q 18.703125 7.5625 23.875 7.5625 
L 47.859375 7.5625 
L 47.859375 0 
z
" id="ArialMT-7a"/>
      <path d="M 25.78125 7.859375 
L 27.046875 0.09375 
Q 23.34375 -0.6875 20.40625 -0.6875 
Q 15.625 -0.6875 12.984375 0.828125 
Q 10.359375 2.34375 9.28125 4.8125 
Q 8.203125 7.28125 8.203125 15.1875 
L 8.203125 45.015625 
L 1.765625 45.015625 
L 1.765625 51.859375 
L 8.203125 51.859375 
L 8.203125 64.703125 
L 16.9375 69.96875 
L 16.9375 51.859375 
L 25.78125 51.859375 
L 25.78125 45.015625 
L 16.9375 45.015625 
L 16.9375 14.703125 
Q 16.9375 10.9375 17.40625 9.859375 
Q 17.875 8.796875 18.921875 8.15625 
Q 19.96875 7.515625 21.921875 7.515625 
Q 23.390625 7.515625 25.78125 7.859375 
z
" id="ArialMT-74"/>
      <path d="M 6.59375 0 
L 6.59375 51.859375 
L 14.5 51.859375 
L 14.5 44.484375 
Q 20.21875 53.03125 31 53.03125 
Q 35.6875 53.03125 39.625 51.34375 
Q 43.5625 49.65625 45.515625 46.921875 
Q 47.46875 44.1875 48.25 40.4375 
Q 48.734375 37.984375 48.734375 31.890625 
L 48.734375 0 
L 39.9375 0 
L 39.9375 31.546875 
Q 39.9375 36.921875 38.90625 39.578125 
Q 37.890625 42.234375 35.28125 43.8125 
Q 32.671875 45.40625 29.15625 45.40625 
Q 23.53125 45.40625 19.453125 41.84375 
Q 15.375 38.28125 15.375 28.328125 
L 15.375 0 
z
" id="ArialMT-6e"/>
      <path d="M 40.578125 0 
L 40.578125 7.625 
Q 34.515625 -1.171875 24.125 -1.171875 
Q 19.53125 -1.171875 15.546875 0.578125 
Q 11.578125 2.34375 9.640625 5 
Q 7.71875 7.671875 6.9375 11.53125 
Q 6.390625 14.109375 6.390625 19.734375 
L 6.390625 51.859375 
L 15.1875 51.859375 
L 15.1875 23.09375 
Q 15.1875 16.21875 15.71875 13.8125 
Q 16.546875 10.359375 19.234375 8.375 
Q 21.921875 6.390625 25.875 6.390625 
Q 29.828125 6.390625 33.296875 8.421875 
Q 36.765625 10.453125 38.203125 13.9375 
Q 39.65625 17.4375 39.65625 24.078125 
L 39.65625 51.859375 
L 48.4375 51.859375 
L 48.4375 0 
z
" id="ArialMT-75"/>
     </defs>
     <g style="fill:#d62728;" transform="translate(17.667813 100.664281)rotate(-90)scale(0.1 -0.1)">
      <use xlink:href="#ArialMT-70"/>
      <use x="55.615234" xlink:href="#ArialMT-6f"/>
      <use x="111.230469" xlink:href="#ArialMT-6c"/>
      <use x="133.447266" xlink:href="#ArialMT-61"/>
      <use x="189.0625" xlink:href="#ArialMT-72"/>
      <use x="222.363281" xlink:href="#ArialMT-69"/>
      <use x="244.580078" xlink:href="#ArialMT-7a"/>
      <use x="294.580078" xlink:href="#ArialMT-61"/>
      <use x="350.195312" xlink:href="#ArialMT-74"/>
      <use x="377.978516" xlink:href="#ArialMT-69"/>
      <use x="400.195312" xlink:href="#ArialMT-6f"/>
      <use x="455.810547" xlink:href="#ArialMT-6e"/>
      <use x="511.425781" xlink:href="#ArialMT-20"/>
      <use x="539.208984" xlink:href="#ArialMT-28"/>
      <use x="572.509766" xlink:href="#ArialMT-61"/>
      <use x="628.125" xlink:href="#ArialMT-2e"/>
      <use x="655.908203" xlink:href="#ArialMT-75"/>
      <use x="711.523438" xlink:href="#ArialMT-29"/>
     </g>
    </g>
   </g>
   <g id="line2d_17">
    <defs>
     <path d="M 0 1.5 
C 0.397805 1.5 0.77937 1.341951 1.06066 1.06066 
C 1.341951 0.77937 1.5 0.397805 1.5 0 
C 1.5 -0.397805 1.341951 -0.77937 1.06066 -1.06066 
C 0.77937 -1.341951 0.397805 -1.5 0 -1.5 
C -0.397805 -1.5 -0.77937 -1.341951 -1.06066 -1.06066 
C -1.341951 -0.77937 -1.5 -0.397805 -1.5 0 
C -1.5 0.397805 -1.341951 0.77937 -1.06066 1.06066 
C -0.77937 1.341951 -0.397805 1.5 0 1.5 
z
" id="m174c8420d1" style="stroke:#d62728;"/>
    </defs>
    <g clip-path="url(#p2fa2654704)">
     <use style="fill:#d62728;stroke:#d62728;" x="45.841364" xlink:href="#m174c8420d1" y="111.267818"/>
     <use style="fill:#d62728;stroke:#d62728;" x="46.118144" xlink:href="#m174c8420d1" y="111.244091"/>
     <use style="fill:#d62728;stroke:#d62728;" x="46.32573" xlink:href="#m174c8420d1" y="111.222088"/>
     <use style="fill:#d62728;stroke:#d62728;" x="47.502049" xlink:href="#m174c8420d1" y="111.214113"/>
     <use style="fill:#d62728;stroke:#d62728;" x="47.709634" xlink:href="#m174c8420d1" y="111.183037"/>
     <use style="fill:#d62728;stroke:#d62728;" x="47.986415" xlink:href="#m174c8420d1" y="111.157774"/>
     <use style="fill:#d62728;stroke:#d62728;" x="49.231929" xlink:href="#m174c8420d1" y="111.146327"/>
     <use style="fill:#d62728;stroke:#d62728;" x="49.487951" xlink:href="#m174c8420d1" y="111.113546"/>
     <use style="fill:#d62728;stroke:#d62728;" x="49.674778" xlink:href="#m174c8420d1" y="111.080862"/>
     <use style="fill:#d62728;stroke:#d62728;" x="50.788821" xlink:href="#m174c8420d1" y="111.066055"/>
     <use style="fill:#d62728;stroke:#d62728;" x="50.975648" xlink:href="#m174c8420d1" y="111.027768"/>
     <use style="fill:#d62728;stroke:#d62728;" x="51.08636" xlink:href="#m174c8420d1" y="110.992943"/>
     <use style="fill:#d62728;stroke:#d62728;" x="51.916702" xlink:href="#m174c8420d1" y="110.971119"/>
     <use style="fill:#d62728;stroke:#d62728;" x="52.068932" xlink:href="#m174c8420d1" y="110.926337"/>
     <use style="fill:#d62728;stroke:#d62728;" x="52.248839" xlink:href="#m174c8420d1" y="110.885222"/>
     <use style="fill:#d62728;stroke:#d62728;" x="53.266009" xlink:href="#m174c8420d1" y="110.859423"/>
     <use style="fill:#d62728;stroke:#d62728;" x="53.508192" xlink:href="#m174c8420d1" y="110.81236"/>
     <use style="fill:#d62728;stroke:#d62728;" x="53.729617" xlink:href="#m174c8420d1" y="110.764179"/>
     <use style="fill:#d62728;stroke:#d62728;" x="55.009728" xlink:href="#m174c8420d1" y="110.725409"/>
     <use style="fill:#d62728;stroke:#d62728;" x="55.238072" xlink:href="#m174c8420d1" y="110.670714"/>
     <use style="fill:#d62728;stroke:#d62728;" x="55.438738" xlink:href="#m174c8420d1" y="110.621039"/>
     <use style="fill:#d62728;stroke:#d62728;" x="56.525103" xlink:href="#m174c8420d1" y="110.573155"/>
     <use style="fill:#d62728;stroke:#d62728;" x="56.732689" xlink:href="#m174c8420d1" y="110.516455"/>
     <use style="fill:#d62728;stroke:#d62728;" x="56.891838" xlink:href="#m174c8420d1" y="110.457357"/>
     <use style="fill:#d62728;stroke:#d62728;" x="57.978202" xlink:href="#m174c8420d1" y="110.406984"/>
     <use style="fill:#d62728;stroke:#d62728;" x="58.192707" xlink:href="#m174c8420d1" y="110.344086"/>
     <use style="fill:#d62728;stroke:#d62728;" x="58.407213" xlink:href="#m174c8420d1" y="110.281837"/>
     <use style="fill:#d62728;stroke:#d62728;" x="59.583531" xlink:href="#m174c8420d1" y="110.227514"/>
     <use style="fill:#d62728;stroke:#d62728;" x="59.811875" xlink:href="#m174c8420d1" y="110.163091"/>
     <use style="fill:#d62728;stroke:#d62728;" x="60.0333" xlink:href="#m174c8420d1" y="110.096994"/>
     <use style="fill:#d62728;stroke:#d62728;" x="61.029711" xlink:href="#m174c8420d1" y="110.033629"/>
     <use style="fill:#d62728;stroke:#d62728;" x="61.202699" xlink:href="#m174c8420d1" y="109.962386"/>
     <use style="fill:#d62728;stroke:#d62728;" x="61.396445" xlink:href="#m174c8420d1" y="109.884894"/>
     <use style="fill:#d62728;stroke:#d62728;" x="62.517408" xlink:href="#m174c8420d1" y="109.817825"/>
     <use style="fill:#d62728;stroke:#d62728;" x="62.738832" xlink:href="#m174c8420d1" y="109.739652"/>
     <use style="fill:#d62728;stroke:#d62728;" x="62.91874" xlink:href="#m174c8420d1" y="109.657657"/>
     <use style="fill:#d62728;stroke:#d62728;" x="63.887473" xlink:href="#m174c8420d1" y="109.582695"/>
     <use style="fill:#d62728;stroke:#d62728;" x="64.088139" xlink:href="#m174c8420d1" y="109.499853"/>
     <use style="fill:#d62728;stroke:#d62728;" x="64.254207" xlink:href="#m174c8420d1" y="109.407851"/>
     <use style="fill:#d62728;stroke:#d62728;" x="65.250618" xlink:href="#m174c8420d1" y="109.322741"/>
     <use style="fill:#d62728;stroke:#d62728;" x="65.444365" xlink:href="#m174c8420d1" y="109.230966"/>
     <use style="fill:#d62728;stroke:#d62728;" x="65.638111" xlink:href="#m174c8420d1" y="109.134328"/>
     <use style="fill:#d62728;stroke:#d62728;" x="66.655281" xlink:href="#m174c8420d1" y="109.044964"/>
     <use style="fill:#d62728;stroke:#d62728;" x="66.855947" xlink:href="#m174c8420d1" y="108.946749"/>
     <use style="fill:#d62728;stroke:#d62728;" x="67.056613" xlink:href="#m174c8420d1" y="108.842458"/>
     <use style="fill:#d62728;stroke:#d62728;" x="68.302127" xlink:href="#m174c8420d1" y="108.74394"/>
     <use style="fill:#d62728;stroke:#d62728;" x="68.551229" xlink:href="#m174c8420d1" y="108.639738"/>
     <use style="fill:#d62728;stroke:#d62728;" x="68.786493" xlink:href="#m174c8420d1" y="108.526567"/>
     <use style="fill:#d62728;stroke:#d62728;" x="70.011248" xlink:href="#m174c8420d1" y="108.424599"/>
     <use style="fill:#d62728;stroke:#d62728;" x="70.191156" xlink:href="#m174c8420d1" y="108.311251"/>
     <use style="fill:#d62728;stroke:#d62728;" x="70.336466" xlink:href="#m174c8420d1" y="108.189014"/>
     <use style="fill:#d62728;stroke:#d62728;" x="71.118371" xlink:href="#m174c8420d1" y="108.075211"/>
     <use style="fill:#d62728;stroke:#d62728;" x="71.298279" xlink:href="#m174c8420d1" y="107.951719"/>
     <use style="fill:#d62728;stroke:#d62728;" x="71.464347" xlink:href="#m174c8420d1" y="107.818568"/>
     <use style="fill:#d62728;stroke:#d62728;" x="72.467678" xlink:href="#m174c8420d1" y="107.690402"/>
     <use style="fill:#d62728;stroke:#d62728;" x="72.702942" xlink:href="#m174c8420d1" y="107.557732"/>
     <use style="fill:#d62728;stroke:#d62728;" x="72.882849" xlink:href="#m174c8420d1" y="107.414764"/>
     <use style="fill:#d62728;stroke:#d62728;" x="74.114524" xlink:href="#m174c8420d1" y="107.279566"/>
     <use style="fill:#d62728;stroke:#d62728;" x="74.370546" xlink:href="#m174c8420d1" y="107.133934"/>
     <use style="fill:#d62728;stroke:#d62728;" x="74.536614" xlink:href="#m174c8420d1" y="106.980502"/>
     <use style="fill:#d62728;stroke:#d62728;" x="75.574542" xlink:href="#m174c8420d1" y="106.828329"/>
     <use style="fill:#d62728;stroke:#d62728;" x="75.809806" xlink:href="#m174c8420d1" y="106.67143"/>
     <use style="fill:#d62728;stroke:#d62728;" x="76.003553" xlink:href="#m174c8420d1" y="106.503581"/>
     <use style="fill:#d62728;stroke:#d62728;" x="77.138354" xlink:href="#m174c8420d1" y="106.340718"/>
     <use style="fill:#d62728;stroke:#d62728;" x="77.352859" xlink:href="#m174c8420d1" y="106.17121"/>
     <use style="fill:#d62728;stroke:#d62728;" x="77.512008" xlink:href="#m174c8420d1" y="105.98879"/>
     <use style="fill:#d62728;stroke:#d62728;" x="78.598373" xlink:href="#m174c8420d1" y="105.809562"/>
     <use style="fill:#d62728;stroke:#d62728;" x="78.819798" xlink:href="#m174c8420d1" y="105.624672"/>
     <use style="fill:#d62728;stroke:#d62728;" x="79.041222" xlink:href="#m174c8420d1" y="105.428053"/>
     <use style="fill:#d62728;stroke:#d62728;" x="80.099909" xlink:href="#m174c8420d1" y="105.227287"/>
     <use style="fill:#d62728;stroke:#d62728;" x="80.286736" xlink:href="#m174c8420d1" y="105.025326"/>
     <use style="fill:#d62728;stroke:#d62728;" x="80.473563" xlink:href="#m174c8420d1" y="104.806056"/>
     <use style="fill:#d62728;stroke:#d62728;" x="81.414618" xlink:href="#m174c8420d1" y="104.586899"/>
     <use style="fill:#d62728;stroke:#d62728;" x="81.587606" xlink:href="#m174c8420d1" y="104.366396"/>
     <use style="fill:#d62728;stroke:#d62728;" x="81.732916" xlink:href="#m174c8420d1" y="104.123995"/>
     <use style="fill:#d62728;stroke:#d62728;" x="82.881556" xlink:href="#m174c8420d1" y="103.879063"/>
     <use style="fill:#d62728;stroke:#d62728;" x="83.220612" xlink:href="#m174c8420d1" y="103.636287"/>
     <use style="fill:#d62728;stroke:#d62728;" x="83.483554" xlink:href="#m174c8420d1" y="103.372683"/>
     <use style="fill:#d62728;stroke:#d62728;" x="84.55608" xlink:href="#m174c8420d1" y="103.10664"/>
     <use style="fill:#d62728;stroke:#d62728;" x="84.756746" xlink:href="#m174c8420d1" y="102.840042"/>
     <use style="fill:#d62728;stroke:#d62728;" x="84.915895" xlink:href="#m174c8420d1" y="102.546843"/>
     <use style="fill:#d62728;stroke:#d62728;" x="86.14757" xlink:href="#m174c8420d1" y="102.254952"/>
     <use style="fill:#d62728;stroke:#d62728;" x="86.42435" xlink:href="#m174c8420d1" y="101.962438"/>
     <use style="fill:#d62728;stroke:#d62728;" x="86.645775" xlink:href="#m174c8420d1" y="101.646338"/>
     <use style="fill:#d62728;stroke:#d62728;" x="87.87745" xlink:href="#m174c8420d1" y="101.325263"/>
     <use style="fill:#d62728;stroke:#d62728;" x="88.105794" xlink:href="#m174c8420d1" y="101.003241"/>
     <use style="fill:#d62728;stroke:#d62728;" x="88.264943" xlink:href="#m174c8420d1" y="100.652886"/>
     <use style="fill:#d62728;stroke:#d62728;" x="89.268273" xlink:href="#m174c8420d1" y="100.297946"/>
     <use style="fill:#d62728;stroke:#d62728;" x="89.517376" xlink:href="#m174c8420d1" y="99.935507"/>
     <use style="fill:#d62728;stroke:#d62728;" x="89.711123" xlink:href="#m174c8420d1" y="99.547541"/>
     <use style="fill:#d62728;stroke:#d62728;" x="90.818246" xlink:href="#m174c8420d1" y="99.149542"/>
     <use style="fill:#d62728;stroke:#d62728;" x="91.032751" xlink:href="#m174c8420d1" y="98.750667"/>
     <use style="fill:#d62728;stroke:#d62728;" x="91.171141" xlink:href="#m174c8420d1" y="98.321691"/>
     <use style="fill:#d62728;stroke:#d62728;" x="92.091438" xlink:href="#m174c8420d1" y="97.882587"/>
     <use style="fill:#d62728;stroke:#d62728;" x="92.305943" xlink:href="#m174c8420d1" y="97.437753"/>
     <use style="fill:#d62728;stroke:#d62728;" x="92.48585" xlink:href="#m174c8420d1" y="96.964965"/>
     <use style="fill:#d62728;stroke:#d62728;" x="93.572215" xlink:href="#m174c8420d1" y="96.477049"/>
     <use style="fill:#d62728;stroke:#d62728;" x="93.79364" xlink:href="#m174c8420d1" y="95.983992"/>
     <use style="fill:#d62728;stroke:#d62728;" x="94.028903" xlink:href="#m174c8420d1" y="95.462425"/>
     <use style="fill:#d62728;stroke:#d62728;" x="95.2329" xlink:href="#m174c8420d1" y="94.922014"/>
     <use style="fill:#d62728;stroke:#d62728;" x="95.447405" xlink:href="#m174c8420d1" y="94.379896"/>
     <use style="fill:#d62728;stroke:#d62728;" x="95.703427" xlink:href="#m174c8420d1" y="93.807705"/>
     <use style="fill:#d62728;stroke:#d62728;" x="96.997377" xlink:href="#m174c8420d1" y="93.215039"/>
     <use style="fill:#d62728;stroke:#d62728;" x="97.301836" xlink:href="#m174c8420d1" y="92.616395"/>
     <use style="fill:#d62728;stroke:#d62728;" x="97.550939" xlink:href="#m174c8420d1" y="91.991391"/>
     <use style="fill:#d62728;stroke:#d62728;" x="98.69266" xlink:href="#m174c8420d1" y="91.34335"/>
     <use style="fill:#d62728;stroke:#d62728;" x="98.914085" xlink:href="#m174c8420d1" y="90.692943"/>
     <use style="fill:#d62728;stroke:#d62728;" x="99.080153" xlink:href="#m174c8420d1" y="90.013126"/>
     <use style="fill:#d62728;stroke:#d62728;" x="99.938174" xlink:href="#m174c8420d1" y="89.314689"/>
     <use style="fill:#d62728;stroke:#d62728;" x="100.145759" xlink:href="#m174c8420d1" y="88.611597"/>
     <use style="fill:#d62728;stroke:#d62728;" x="100.297989" xlink:href="#m174c8420d1" y="87.881663"/>
     <use style="fill:#d62728;stroke:#d62728;" x="101.2944" xlink:href="#m174c8420d1" y="87.133102"/>
     <use style="fill:#d62728;stroke:#d62728;" x="101.515824" xlink:href="#m174c8420d1" y="86.383561"/>
     <use style="fill:#d62728;stroke:#d62728;" x="101.695732" xlink:href="#m174c8420d1" y="85.60565"/>
     <use style="fill:#d62728;stroke:#d62728;" x="103.155751" xlink:href="#m174c8420d1" y="84.815993"/>
     <use style="fill:#d62728;stroke:#d62728;" x="103.384095" xlink:href="#m174c8420d1" y="84.026916"/>
     <use style="fill:#d62728;stroke:#d62728;" x="103.605519" xlink:href="#m174c8420d1" y="83.212727"/>
     <use style="fill:#d62728;stroke:#d62728;" x="104.650367" xlink:href="#m174c8420d1" y="82.391247"/>
     <use style="fill:#d62728;stroke:#d62728;" x="104.864872" xlink:href="#m174c8420d1" y="81.557658"/>
     <use style="fill:#d62728;stroke:#d62728;" x="105.058619" xlink:href="#m174c8420d1" y="80.712826"/>
     <use style="fill:#d62728;stroke:#d62728;" x="106.207259" xlink:href="#m174c8420d1" y="79.8633"/>
     <use style="fill:#d62728;stroke:#d62728;" x="106.428684" xlink:href="#m174c8420d1" y="79.004195"/>
     <use style="fill:#d62728;stroke:#d62728;" x="106.62243" xlink:href="#m174c8420d1" y="78.131491"/>
     <use style="fill:#d62728;stroke:#d62728;" x="107.653439" xlink:href="#m174c8420d1" y="77.256142"/>
     <use style="fill:#d62728;stroke:#d62728;" x="107.812588" xlink:href="#m174c8420d1" y="76.372014"/>
     <use style="fill:#d62728;stroke:#d62728;" x="107.957898" xlink:href="#m174c8420d1" y="75.475295"/>
     <use style="fill:#d62728;stroke:#d62728;" x="108.822838" xlink:href="#m174c8420d1" y="74.57261"/>
     <use style="fill:#d62728;stroke:#d62728;" x="109.023504" xlink:href="#m174c8420d1" y="73.660797"/>
     <use style="fill:#d62728;stroke:#d62728;" x="109.203411" xlink:href="#m174c8420d1" y="72.735594"/>
     <use style="fill:#d62728;stroke:#d62728;" x="110.365891" xlink:href="#m174c8420d1" y="71.808538"/>
     <use style="fill:#d62728;stroke:#d62728;" x="110.635752" xlink:href="#m174c8420d1" y="70.869093"/>
     <use style="fill:#d62728;stroke:#d62728;" x="110.924296" xlink:href="#m174c8420d1" y="69.922067"/>
     <use style="fill:#d62728;stroke:#d62728;" x="112.394694" xlink:href="#m174c8420d1" y="68.975273"/>
     <use style="fill:#d62728;stroke:#d62728;" x="112.649332" xlink:href="#m174c8420d1" y="68.018927"/>
     <use style="fill:#d62728;stroke:#d62728;" x="112.843771" xlink:href="#m174c8420d1" y="67.049401"/>
     <use style="fill:#d62728;stroke:#d62728;" x="113.9246" xlink:href="#m174c8420d1" y="66.083858"/>
     <use style="fill:#d62728;stroke:#d62728;" x="114.119731" xlink:href="#m174c8420d1" y="65.102919"/>
     <use style="fill:#d62728;stroke:#d62728;" x="114.287183" xlink:href="#m174c8420d1" y="64.1156"/>
     <use style="fill:#d62728;stroke:#d62728;" x="115.217166" xlink:href="#m174c8420d1" y="63.131653"/>
     <use style="fill:#d62728;stroke:#d62728;" x="115.433055" xlink:href="#m174c8420d1" y="62.132692"/>
     <use style="fill:#d62728;stroke:#d62728;" x="115.63303" xlink:href="#m174c8420d1" y="61.130424"/>
     <use style="fill:#d62728;stroke:#d62728;" x="116.947047" xlink:href="#m174c8420d1" y="60.135379"/>
     <use style="fill:#d62728;stroke:#d62728;" x="117.228048" xlink:href="#m174c8420d1" y="59.133547"/>
     <use style="fill:#d62728;stroke:#d62728;" x="117.476736" xlink:href="#m174c8420d1" y="58.124074"/>
     <use style="fill:#d62728;stroke:#d62728;" x="118.74197" xlink:href="#m174c8420d1" y="57.125326"/>
     <use style="fill:#d62728;stroke:#d62728;" x="118.920494" xlink:href="#m174c8420d1" y="56.114844"/>
     <use style="fill:#d62728;stroke:#d62728;" x="119.071339" xlink:href="#m174c8420d1" y="55.098732"/>
     <use style="fill:#d62728;stroke:#d62728;" x="119.974337" xlink:href="#m174c8420d1" y="54.098895"/>
     <use style="fill:#d62728;stroke:#d62728;" x="120.168775" xlink:href="#m174c8420d1" y="53.088652"/>
     <use style="fill:#d62728;stroke:#d62728;" x="120.320313" xlink:href="#m174c8420d1" y="52.071811"/>
     <use style="fill:#d62728;stroke:#d62728;" x="121.412213" xlink:href="#m174c8420d1" y="51.07038"/>
     <use style="fill:#d62728;stroke:#d62728;" x="121.709752" xlink:href="#m174c8420d1" y="50.059749"/>
     <use style="fill:#d62728;stroke:#d62728;" x="121.953319" xlink:href="#m174c8420d1" y="49.046445"/>
     <use style="fill:#d62728;stroke:#d62728;" x="123.520591" xlink:href="#m174c8420d1" y="48.046614"/>
     <use style="fill:#d62728;stroke:#d62728;" x="123.742707" xlink:href="#m174c8420d1" y="47.041922"/>
     <use style="fill:#d62728;stroke:#d62728;" x="124.751573" xlink:href="#m174c8420d1" y="46.051397"/>
     <use style="fill:#d62728;stroke:#d62728;" x="124.896883" xlink:href="#m174c8420d1" y="45.057294"/>
     <use style="fill:#d62728;stroke:#d62728;" x="126.183914" xlink:href="#m174c8420d1" y="44.075688"/>
     <use style="fill:#d62728;stroke:#d62728;" x="126.405339" xlink:href="#m174c8420d1" y="43.094211"/>
     <use style="fill:#d62728;stroke:#d62728;" x="127.733887" xlink:href="#m174c8420d1" y="42.138058"/>
     <use style="fill:#d62728;stroke:#d62728;" x="127.934553" xlink:href="#m174c8420d1" y="41.180961"/>
     <use style="fill:#d62728;stroke:#d62728;" x="129.200825" xlink:href="#m174c8420d1" y="40.244717"/>
     <use style="fill:#d62728;stroke:#d62728;" x="129.394572" xlink:href="#m174c8420d1" y="39.313734"/>
     <use style="fill:#d62728;stroke:#d62728;" x="130.626246" xlink:href="#m174c8420d1" y="38.411478"/>
     <use style="fill:#d62728;stroke:#d62728;" x="130.819993" xlink:href="#m174c8420d1" y="37.514622"/>
     <use style="fill:#d62728;stroke:#d62728;" x="132.183138" xlink:href="#m174c8420d1" y="36.647145"/>
     <use style="fill:#d62728;stroke:#d62728;" x="132.411482" xlink:href="#m174c8420d1" y="35.783576"/>
     <use style="fill:#d62728;stroke:#d62728;" x="133.774628" xlink:href="#m174c8420d1" y="34.952022"/>
     <use style="fill:#d62728;stroke:#d62728;" x="133.982214" xlink:href="#m174c8420d1" y="34.12871"/>
     <use style="fill:#d62728;stroke:#d62728;" x="135.456071" xlink:href="#m174c8420d1" y="33.339904"/>
     <use style="fill:#d62728;stroke:#d62728;" x="135.725933" xlink:href="#m174c8420d1" y="32.557293"/>
     <use style="fill:#d62728;stroke:#d62728;" x="137.123676" xlink:href="#m174c8420d1" y="31.805342"/>
     <use style="fill:#d62728;stroke:#d62728;" x="137.331261" xlink:href="#m174c8420d1" y="31.064546"/>
     <use style="fill:#d62728;stroke:#d62728;" x="138.590614" xlink:href="#m174c8420d1" y="30.355249"/>
     <use style="fill:#d62728;stroke:#d62728;" x="138.805119" xlink:href="#m174c8420d1" y="29.64896"/>
     <use style="fill:#d62728;stroke:#d62728;" x="140.202862" xlink:href="#m174c8420d1" y="28.97333"/>
     <use style="fill:#d62728;stroke:#d62728;" x="140.417368" xlink:href="#m174c8420d1" y="28.301679"/>
     <use style="fill:#d62728;stroke:#d62728;" x="141.842789" xlink:href="#m174c8420d1" y="27.66138"/>
     <use style="fill:#d62728;stroke:#d62728;" x="142.050374" xlink:href="#m174c8420d1" y="27.022668"/>
     <use style="fill:#d62728;stroke:#d62728;" x="143.046785" xlink:href="#m174c8420d1" y="26.420527"/>
     <use style="fill:#d62728;stroke:#d62728;" x="143.226693" xlink:href="#m174c8420d1" y="25.821498"/>
     <use style="fill:#d62728;stroke:#d62728;" x="144.458367" xlink:href="#m174c8420d1" y="25.254108"/>
     <use style="fill:#d62728;stroke:#d62728;" x="144.638275" xlink:href="#m174c8420d1" y="24.700094"/>
     <use style="fill:#d62728;stroke:#d62728;" x="146.056777" xlink:href="#m174c8420d1" y="24.182113"/>
     <use style="fill:#d62728;stroke:#d62728;" x="146.278201" xlink:href="#m174c8420d1" y="23.669532"/>
     <use style="fill:#d62728;stroke:#d62728;" x="147.433761" xlink:href="#m174c8420d1" y="23.19667"/>
     <use style="fill:#d62728;stroke:#d62728;" x="147.613669" xlink:href="#m174c8420d1" y="22.728586"/>
     <use style="fill:#d62728;stroke:#d62728;" x="148.900699" xlink:href="#m174c8420d1" y="22.298101"/>
     <use style="fill:#d62728;stroke:#d62728;" x="149.108285" xlink:href="#m174c8420d1" y="21.875165"/>
     <use style="fill:#d62728;stroke:#d62728;" x="150.381477" xlink:href="#m174c8420d1" y="21.490177"/>
     <use style="fill:#d62728;stroke:#d62728;" x="150.602901" xlink:href="#m174c8420d1" y="21.111975"/>
     <use style="fill:#d62728;stroke:#d62728;" x="152.083679" xlink:href="#m174c8420d1" y="20.767758"/>
     <use style="fill:#d62728;stroke:#d62728;" x="152.312023" xlink:href="#m174c8420d1" y="20.437434"/>
     <use style="fill:#d62728;stroke:#d62728;" x="153.599054" xlink:href="#m174c8420d1" y="20.132645"/>
     <use style="fill:#d62728;stroke:#d62728;" x="153.758203" xlink:href="#m174c8420d1" y="19.818521"/>
     <use style="fill:#d62728;stroke:#d62728;" x="154.996797" xlink:href="#m174c8420d1" y="19.54675"/>
     <use style="fill:#d62728;stroke:#d62728;" x="155.169785" xlink:href="#m174c8420d1" y="19.275282"/>
     <use style="fill:#d62728;stroke:#d62728;" x="156.574447" xlink:href="#m174c8420d1" y="19.034787"/>
     <use style="fill:#d62728;stroke:#d62728;" x="156.761275" xlink:href="#m174c8420d1" y="18.789534"/>
     <use style="fill:#d62728;stroke:#d62728;" x="158.26973" xlink:href="#m174c8420d1" y="18.578265"/>
     <use style="fill:#d62728;stroke:#d62728;" x="158.449638" xlink:href="#m174c8420d1" y="18.365116"/>
     <use style="fill:#d62728;stroke:#d62728;" x="159.750507" xlink:href="#m174c8420d1" y="18.181453"/>
     <use style="fill:#d62728;stroke:#d62728;" x="159.916576" xlink:href="#m174c8420d1" y="17.99279"/>
     <use style="fill:#d62728;stroke:#d62728;" x="161.252043" xlink:href="#m174c8420d1" y="17.830733"/>
     <use style="fill:#d62728;stroke:#d62728;" x="161.43887" xlink:href="#m174c8420d1" y="17.660451"/>
     <use style="fill:#d62728;stroke:#d62728;" x="162.74666" xlink:href="#m174c8420d1" y="17.515528"/>
     <use style="fill:#d62728;stroke:#d62728;" x="162.940406" xlink:href="#m174c8420d1" y="17.367545"/>
     <use style="fill:#d62728;stroke:#d62728;" x="164.262035" xlink:href="#m174c8420d1" y="17.242495"/>
     <use style="fill:#d62728;stroke:#d62728;" x="164.46962" xlink:href="#m174c8420d1" y="17.101278"/>
     <use style="fill:#d62728;stroke:#d62728;" x="165.798168" xlink:href="#m174c8420d1" y="16.989268"/>
     <use style="fill:#d62728;stroke:#d62728;" x="165.998834" xlink:href="#m174c8420d1" y="16.874234"/>
     <use style="fill:#d62728;stroke:#d62728;" x="167.258187" xlink:href="#m174c8420d1" y="16.777938"/>
     <use style="fill:#d62728;stroke:#d62728;" x="167.396577" xlink:href="#m174c8420d1" y="16.67595"/>
     <use style="fill:#d62728;stroke:#d62728;" x="168.552137" xlink:href="#m174c8420d1" y="16.589828"/>
     <use style="fill:#d62728;stroke:#d62728;" x="168.738964" xlink:href="#m174c8420d1" y="16.49548"/>
     <use style="fill:#d62728;stroke:#d62728;" x="170.032915" xlink:href="#m174c8420d1" y="16.419627"/>
     <use style="fill:#d62728;stroke:#d62728;" x="170.212822" xlink:href="#m174c8420d1" y="16.341756"/>
     <use style="fill:#d62728;stroke:#d62728;" x="171.499853" xlink:href="#m174c8420d1" y="16.275965"/>
     <use style="fill:#d62728;stroke:#d62728;" x="171.714358" xlink:href="#m174c8420d1" y="16.203751"/>
     <use style="fill:#d62728;stroke:#d62728;" x="173.098262" xlink:href="#m174c8420d1" y="16.148537"/>
     <use style="fill:#d62728;stroke:#d62728;" x="173.250491" xlink:href="#m174c8420d1" y="16.0877"/>
     <use style="fill:#d62728;stroke:#d62728;" x="174.57212" xlink:href="#m174c8420d1" y="16.037451"/>
     <use style="fill:#d62728;stroke:#d62728;" x="174.779705" xlink:href="#m174c8420d1" y="15.985598"/>
     <use style="fill:#d62728;stroke:#d62728;" x="175.956024" xlink:href="#m174c8420d1" y="15.941947"/>
     <use style="fill:#d62728;stroke:#d62728;" x="176.122092" xlink:href="#m174c8420d1" y="15.892742"/>
     <use style="fill:#d62728;stroke:#d62728;" x="177.499077" xlink:href="#m174c8420d1" y="15.855094"/>
     <use style="fill:#d62728;stroke:#d62728;" x="177.692824" xlink:href="#m174c8420d1" y="15.817853"/>
     <use style="fill:#d62728;stroke:#d62728;" x="179.201279" xlink:href="#m174c8420d1" y="15.78783"/>
     <use style="fill:#d62728;stroke:#d62728;" x="179.415784" xlink:href="#m174c8420d1" y="15.754573"/>
     <use style="fill:#d62728;stroke:#d62728;" x="180.688976" xlink:href="#m174c8420d1" y="15.731525"/>
     <use style="fill:#d62728;stroke:#d62728;" x="180.855044" xlink:href="#m174c8420d1" y="15.705281"/>
     <use style="fill:#d62728;stroke:#d62728;" x="182.183592" xlink:href="#m174c8420d1" y="15.685637"/>
     <use style="fill:#d62728;stroke:#d62728;" x="182.384258" xlink:href="#m174c8420d1" y="15.666712"/>
     <use style="fill:#d62728;stroke:#d62728;" x="183.705887" xlink:href="#m174c8420d1" y="15.651026"/>
     <use style="fill:#d62728;stroke:#d62728;" x="183.865036" xlink:href="#m174c8420d1" y="15.633634"/>
     <use style="fill:#d62728;stroke:#d62728;" x="185.027515" xlink:href="#m174c8420d1" y="15.619382"/>
     <use style="fill:#d62728;stroke:#d62728;" x="185.235101" xlink:href="#m174c8420d1" y="15.610045"/>
     <use style="fill:#d62728;stroke:#d62728;" x="186.584407" xlink:href="#m174c8420d1" y="15.600201"/>
     <use style="fill:#d62728;stroke:#d62728;" x="186.771234" xlink:href="#m174c8420d1" y="15.595167"/>
     <use style="fill:#d62728;stroke:#d62728;" x="187.968311" xlink:href="#m174c8420d1" y="15.589702"/>
     <use style="fill:#d62728;stroke:#d62728;" x="188.106702" xlink:href="#m174c8420d1" y="15.588669"/>
     <use style="fill:#d62728;stroke:#d62728;" x="189.421411" xlink:href="#m174c8420d1" y="15.584182"/>
     <use style="fill:#d62728;stroke:#d62728;" x="189.628996" xlink:href="#m174c8420d1" y="15.587938"/>
     <use style="fill:#d62728;stroke:#d62728;" x="191.0129" xlink:href="#m174c8420d1" y="15.587198"/>
     <use style="fill:#d62728;stroke:#d62728;" x="191.220486" xlink:href="#m174c8420d1" y="15.590401"/>
     <use style="fill:#d62728;stroke:#d62728;" x="192.60439" xlink:href="#m174c8420d1" y="15.590773"/>
     <use style="fill:#d62728;stroke:#d62728;" x="192.811975" xlink:href="#m174c8420d1" y="15.600774"/>
     <use style="fill:#d62728;stroke:#d62728;" x="194.057489" xlink:href="#m174c8420d1" y="15.604481"/>
     <use style="fill:#d62728;stroke:#d62728;" x="194.19588" xlink:href="#m174c8420d1" y="15.614424"/>
     <use style="fill:#d62728;stroke:#d62728;" x="194.749441" xlink:href="#m174c8420d1" y="15.621847"/>
     <use style="fill:#d62728;stroke:#d62728;" x="194.818636" xlink:href="#m174c8420d1" y="15.621847"/>
    </g>
   </g>
   <g id="patch_3">
    <path d="M 38.3925 116.052 
L 38.3925 10.8 
" style="fill:none;stroke:#000000;stroke-linecap:square;stroke-linejoin:miter;stroke-width:0.8;"/>
   </g>
   <g id="patch_4">
    <path d="M 202.2675 116.052 
L 202.2675 10.8 
" style="fill:none;stroke:#000000;stroke-linecap:square;stroke-linejoin:miter;stroke-width:0.8;"/>
   </g>
   <g id="patch_5">
    <path d="M 38.3925 116.052 
L 202.2675 116.052 
" style="fill:none;stroke:#000000;stroke-linecap:square;stroke-linejoin:miter;stroke-width:0.8;"/>
   </g>
   <g id="patch_6">
    <path d="M 38.3925 10.8 
L 202.2675 10.8 
" style="fill:none;stroke:#000000;stroke-linecap:square;stroke-linejoin:miter;stroke-width:0.8;"/>
   </g>
  </g>
  <g id="axes_2">
   <g id="matplotlib.axis_3">
    <g id="ytick_7">
     <g id="line2d_18">
      <defs>
       <path d="M 0 0 
L -3.5 0 
" id="m4c4f05e1b3" style="stroke:#000000;stroke-width:0.8;"/>
      </defs>
      <g>
       <use style="stroke:#000000;stroke-width:0.8;" x="202.2675" xlink:href="#m4c4f05e1b3" y="104.201082"/>
      </g>
     </g>
     <g id="text_14">
      <!-- −10 -->
      <g style="fill:#2ca02c;" transform="translate(205.7675 107.064207)scale(0.08 -0.08)">
       <use xlink:href="#ArialMT-2212"/>
       <use x="58.398438" xlink:href="#ArialMT-31"/>
       <use x="114.013672" xlink:href="#ArialMT-30"/>
      </g>
     </g>
    </g>
    <g id="ytick_8">
     <g id="line2d_19">
      <g>
       <use style="stroke:#000000;stroke-width:0.8;" x="202.2675" xlink:href="#m4c4f05e1b3" y="71.931972"/>
      </g>
     </g>
     <g id="text_15">
      <!-- 0 -->
      <g style="fill:#2ca02c;" transform="translate(205.7675 74.795097)scale(0.08 -0.08)">
       <use xlink:href="#ArialMT-30"/>
      </g>
     </g>
    </g>
    <g id="ytick_9">
     <g id="line2d_20">
      <g>
       <use style="stroke:#000000;stroke-width:0.8;" x="202.2675" xlink:href="#m4c4f05e1b3" y="39.662863"/>
      </g>
     </g>
     <g id="text_16">
      <!-- 10 -->
      <g style="fill:#2ca02c;" transform="translate(205.7675 42.525988)scale(0.08 -0.08)">
       <use xlink:href="#ArialMT-31"/>
       <use x="55.615234" xlink:href="#ArialMT-30"/>
      </g>
     </g>
    </g>
    <g id="text_17">
     <!-- optical tilt (deg) -->
     <defs>
      <path d="M 40.4375 19 
L 49.078125 17.875 
Q 47.65625 8.9375 41.8125 3.875 
Q 35.984375 -1.171875 27.484375 -1.171875 
Q 16.84375 -1.171875 10.375 5.78125 
Q 3.90625 12.75 3.90625 25.734375 
Q 3.90625 34.125 6.6875 40.421875 
Q 9.46875 46.734375 15.15625 49.875 
Q 20.84375 53.03125 27.546875 53.03125 
Q 35.984375 53.03125 41.359375 48.75 
Q 46.734375 44.484375 48.25 36.625 
L 39.703125 35.296875 
Q 38.484375 40.53125 35.375 43.15625 
Q 32.28125 45.796875 27.875 45.796875 
Q 21.234375 45.796875 17.078125 41.03125 
Q 12.9375 36.28125 12.9375 25.984375 
Q 12.9375 15.53125 16.9375 10.796875 
Q 20.953125 6.0625 27.390625 6.0625 
Q 32.5625 6.0625 36.03125 9.234375 
Q 39.5 12.40625 40.4375 19 
z
" id="ArialMT-63"/>
      <path d="M 4.984375 -4.296875 
L 13.53125 -5.5625 
Q 14.0625 -9.515625 16.5 -11.328125 
Q 19.78125 -13.765625 25.4375 -13.765625 
Q 31.546875 -13.765625 34.859375 -11.328125 
Q 38.1875 -8.890625 39.359375 -4.5 
Q 40.046875 -1.8125 39.984375 6.78125 
Q 34.234375 0 25.640625 0 
Q 14.9375 0 9.078125 7.71875 
Q 3.21875 15.4375 3.21875 26.21875 
Q 3.21875 33.640625 5.90625 39.90625 
Q 8.59375 46.1875 13.6875 49.609375 
Q 18.796875 53.03125 25.6875 53.03125 
Q 34.859375 53.03125 40.828125 45.609375 
L 40.828125 51.859375 
L 48.921875 51.859375 
L 48.921875 7.03125 
Q 48.921875 -5.078125 46.453125 -10.125 
Q 44 -15.1875 38.640625 -18.109375 
Q 33.296875 -21.046875 25.484375 -21.046875 
Q 16.21875 -21.046875 10.5 -16.875 
Q 4.78125 -12.703125 4.984375 -4.296875 
z
M 12.25 26.859375 
Q 12.25 16.65625 16.296875 11.96875 
Q 20.359375 7.28125 26.46875 7.28125 
Q 32.515625 7.28125 36.609375 11.9375 
Q 40.71875 16.609375 40.71875 26.5625 
Q 40.71875 36.078125 36.5 40.90625 
Q 32.28125 45.75 26.3125 45.75 
Q 20.453125 45.75 16.34375 40.984375 
Q 12.25 36.234375 12.25 26.859375 
z
" id="ArialMT-67"/>
     </defs>
     <g style="fill:#2ca02c;" transform="translate(230.617188 97.327562)rotate(-90)scale(0.1 -0.1)">
      <use xlink:href="#ArialMT-6f"/>
      <use x="55.615234" xlink:href="#ArialMT-70"/>
      <use x="111.230469" xlink:href="#ArialMT-74"/>
      <use x="139.013672" xlink:href="#ArialMT-69"/>
      <use x="161.230469" xlink:href="#ArialMT-63"/>
      <use x="211.230469" xlink:href="#ArialMT-61"/>
      <use x="266.845703" xlink:href="#ArialMT-6c"/>
      <use x="289.0625" xlink:href="#ArialMT-20"/>
      <use x="316.845703" xlink:href="#ArialMT-74"/>
      <use x="344.628906" xlink:href="#ArialMT-69"/>
      <use x="366.845703" xlink:href="#ArialMT-6c"/>
      <use x="389.0625" xlink:href="#ArialMT-74"/>
      <use x="416.845703" xlink:href="#ArialMT-20"/>
      <use x="444.628906" xlink:href="#ArialMT-28"/>
      <use x="477.929688" xlink:href="#ArialMT-64"/>
      <use x="533.544922" xlink:href="#ArialMT-65"/>
      <use x="589.160156" xlink:href="#ArialMT-67"/>
      <use x="644.775391" xlink:href="#ArialMT-29"/>
     </g>
    </g>
   </g>
   <g id="line2d_21">
    <defs>
     <path d="M 0 1.5 
C 0.397805 1.5 0.77937 1.341951 1.06066 1.06066 
C 1.341951 0.77937 1.5 0.397805 1.5 0 
C 1.5 -0.397805 1.341951 -0.77937 1.06066 -1.06066 
C 0.77937 -1.341951 0.397805 -1.5 0 -1.5 
C -0.397805 -1.5 -0.77937 -1.341951 -1.06066 -1.06066 
C -1.341951 -0.77937 -1.5 -0.397805 -1.5 0 
C -1.5 0.397805 -1.341951 0.77937 -1.06066 1.06066 
C -0.77937 1.341951 -0.397805 1.5 0 1.5 
z
" id="mb31051e4ba" style="stroke:#2ca02c;"/>
    </defs>
    <g clip-path="url(#p2fa2654704)">
     <use style="fill:#2ca02c;stroke:#2ca02c;" x="163.79612" xlink:href="#mb31051e4ba" y="15.584182"/>
     <use style="fill:#2ca02c;stroke:#2ca02c;" x="73.344874" xlink:href="#mb31051e4ba" y="111.267818"/>
     <use style="fill:#2ca02c;stroke:#2ca02c;" x="75.153899" xlink:href="#mb31051e4ba" y="106.249419"/>
     <use style="fill:#2ca02c;stroke:#2ca02c;" x="76.962924" xlink:href="#mb31051e4ba" y="97.163704"/>
     <use style="fill:#2ca02c;stroke:#2ca02c;" x="78.771949" xlink:href="#mb31051e4ba" y="83.46062"/>
     <use style="fill:#2ca02c;stroke:#2ca02c;" x="80.580974" xlink:href="#mb31051e4ba" y="71.18872"/>
     <use style="fill:#2ca02c;stroke:#2ca02c;" x="82.389999" xlink:href="#mb31051e4ba" y="70.734914"/>
     <use style="fill:#2ca02c;stroke:#2ca02c;" x="84.199024" xlink:href="#mb31051e4ba" y="71.732831"/>
     <use style="fill:#2ca02c;stroke:#2ca02c;" x="86.008049" xlink:href="#mb31051e4ba" y="71.913745"/>
     <use style="fill:#2ca02c;stroke:#2ca02c;" x="87.817073" xlink:href="#mb31051e4ba" y="72.729908"/>
     <use style="fill:#2ca02c;stroke:#2ca02c;" x="89.626098" xlink:href="#mb31051e4ba" y="72.458122"/>
     <use style="fill:#2ca02c;stroke:#2ca02c;" x="91.435123" xlink:href="#mb31051e4ba" y="72.186068"/>
     <use style="fill:#2ca02c;stroke:#2ca02c;" x="93.244148" xlink:href="#mb31051e4ba" y="73.455528"/>
     <use style="fill:#2ca02c;stroke:#2ca02c;" x="95.053173" xlink:href="#mb31051e4ba" y="71.279316"/>
     <use style="fill:#2ca02c;stroke:#2ca02c;" x="96.862198" xlink:href="#mb31051e4ba" y="73.274048"/>
     <use style="fill:#2ca02c;stroke:#2ca02c;" x="98.671223" xlink:href="#mb31051e4ba" y="73.27432"/>
     <use style="fill:#2ca02c;stroke:#2ca02c;" x="100.480248" xlink:href="#mb31051e4ba" y="73.274048"/>
     <use style="fill:#2ca02c;stroke:#2ca02c;" x="102.289273" xlink:href="#mb31051e4ba" y="71.823424"/>
     <use style="fill:#2ca02c;stroke:#2ca02c;" x="104.098298" xlink:href="#mb31051e4ba" y="72.27639"/>
     <use style="fill:#2ca02c;stroke:#2ca02c;" x="105.907323" xlink:href="#mb31051e4ba" y="73.092845"/>
     <use style="fill:#2ca02c;stroke:#2ca02c;" x="107.716348" xlink:href="#mb31051e4ba" y="72.094931"/>
     <use style="fill:#2ca02c;stroke:#2ca02c;" x="109.525373" xlink:href="#mb31051e4ba" y="73.092845"/>
     <use style="fill:#2ca02c;stroke:#2ca02c;" x="111.334397" xlink:href="#mb31051e4ba" y="72.729908"/>
     <use style="fill:#2ca02c;stroke:#2ca02c;" x="113.143422" xlink:href="#mb31051e4ba" y="72.910831"/>
     <use style="fill:#2ca02c;stroke:#2ca02c;" x="114.952447" xlink:href="#mb31051e4ba" y="74.543739"/>
     <use style="fill:#2ca02c;stroke:#2ca02c;" x="116.761472" xlink:href="#mb31051e4ba" y="73.817962"/>
     <use style="fill:#2ca02c;stroke:#2ca02c;" x="118.570497" xlink:href="#mb31051e4ba" y="73.727623"/>
     <use style="fill:#2ca02c;stroke:#2ca02c;" x="120.379522" xlink:href="#mb31051e4ba" y="73.183718"/>
     <use style="fill:#2ca02c;stroke:#2ca02c;" x="122.188547" xlink:href="#mb31051e4ba" y="71.369639"/>
     <use style="fill:#2ca02c;stroke:#2ca02c;" x="123.997572" xlink:href="#mb31051e4ba" y="74.634914"/>
     <use style="fill:#2ca02c;stroke:#2ca02c;" x="125.806597" xlink:href="#mb31051e4ba" y="74.634642"/>
     <use style="fill:#2ca02c;stroke:#2ca02c;" x="127.615622" xlink:href="#mb31051e4ba" y="71.279044"/>
     <use style="fill:#2ca02c;stroke:#2ca02c;" x="129.424647" xlink:href="#mb31051e4ba" y="73.27432"/>
     <use style="fill:#2ca02c;stroke:#2ca02c;" x="131.233672" xlink:href="#mb31051e4ba" y="73.909391"/>
     <use style="fill:#2ca02c;stroke:#2ca02c;" x="133.042697" xlink:href="#mb31051e4ba" y="73.999462"/>
     <use style="fill:#2ca02c;stroke:#2ca02c;" x="134.851721" xlink:href="#mb31051e4ba" y="74.181242"/>
     <use style="fill:#2ca02c;stroke:#2ca02c;" x="136.660746" xlink:href="#mb31051e4ba" y="73.999734"/>
     <use style="fill:#2ca02c;stroke:#2ca02c;" x="138.469771" xlink:href="#mb31051e4ba" y="73.093117"/>
     <use style="fill:#2ca02c;stroke:#2ca02c;" x="140.278796" xlink:href="#mb31051e4ba" y="74.725547"/>
     <use style="fill:#2ca02c;stroke:#2ca02c;" x="142.087821" xlink:href="#mb31051e4ba" y="73.455256"/>
     <use style="fill:#2ca02c;stroke:#2ca02c;" x="143.896846" xlink:href="#mb31051e4ba" y="72.366984"/>
     <use style="fill:#2ca02c;stroke:#2ca02c;" x="145.705871" xlink:href="#mb31051e4ba" y="72.911647"/>
     <use style="fill:#2ca02c;stroke:#2ca02c;" x="147.514896" xlink:href="#mb31051e4ba" y="71.188448"/>
     <use style="fill:#2ca02c;stroke:#2ca02c;" x="149.323921" xlink:href="#mb31051e4ba" y="73.364923"/>
     <use style="fill:#2ca02c;stroke:#2ca02c;" x="151.132946" xlink:href="#mb31051e4ba" y="72.367256"/>
     <use style="fill:#2ca02c;stroke:#2ca02c;" x="152.941971" xlink:href="#mb31051e4ba" y="72.639312"/>
     <use style="fill:#2ca02c;stroke:#2ca02c;" x="154.750996" xlink:href="#mb31051e4ba" y="72.27639"/>
     <use style="fill:#2ca02c;stroke:#2ca02c;" x="156.560021" xlink:href="#mb31051e4ba" y="58.81128"/>
     <use style="fill:#2ca02c;stroke:#2ca02c;" x="158.369045" xlink:href="#mb31051e4ba" y="40.862674"/>
     <use style="fill:#2ca02c;stroke:#2ca02c;" x="160.17807" xlink:href="#mb31051e4ba" y="26.281146"/>
     <use style="fill:#2ca02c;stroke:#2ca02c;" x="161.987095" xlink:href="#mb31051e4ba" y="19.33677"/>
    </g>
   </g>
   <g id="patch_7">
    <path d="M 38.3925 116.052 
L 38.3925 10.8 
" style="fill:none;stroke:#000000;stroke-linecap:square;stroke-linejoin:miter;stroke-width:0.8;"/>
   </g>
   <g id="patch_8">
    <path d="M 202.2675 116.052 
L 202.2675 10.8 
" style="fill:none;stroke:#000000;stroke-linecap:square;stroke-linejoin:miter;stroke-width:0.8;"/>
   </g>
   <g id="patch_9">
    <path d="M 38.3925 116.052 
L 202.2675 116.052 
" style="fill:none;stroke:#000000;stroke-linecap:square;stroke-linejoin:miter;stroke-width:0.8;"/>
   </g>
   <g id="patch_10">
    <path d="M 38.3925 10.8 
L 202.2675 10.8 
" style="fill:none;stroke:#000000;stroke-linecap:square;stroke-linejoin:miter;stroke-width:0.8;"/>
   </g>
  </g>
 </g>
 <defs>
  <clipPath id="p2fa2654704">
   <rect height="105.252" width="163.875" x="38.3925" y="10.8"/>
  </clipPath>
 </defs>
</svg>
