<?xml version="1.0" encoding="utf-8" standalone="no"?>
<!DOCTYPE svg PUBLIC "-//W3C//DTD SVG 1.1//EN"
  "http://www.w3.org/Graphics/SVG/1.1/DTD/svg11.dtd">
<!-- Created with matplotlib (http://matplotlib.org/) -->
<svg height="150.192pt" version="1.1" viewBox="0 0 243 150.192" width="243pt" xmlns="http://www.w3.org/2000/svg" xmlns:xlink="http://www.w3.org/1999/xlink">
 <defs>
  <style type="text/css">
*{stroke-linecap:butt;stroke-linejoin:round;}
  </style>
 </defs>
 <g id="figure_1">
  <g id="patch_1">
   <path d="M 0 150.192 
L 243 150.192 
L 243 0 
L 0 0 
z
" style="fill:#ffffff;"/>
  </g>
  <g id="axes_1">
   <g id="patch_2">
    <path d="M 36.1425 116.052 
L 202.2675 116.052 
L 202.2675 10.8 
L 36.1425 10.8 
z
" style="fill:#ffffff;"/>
   </g>
   <g id="matplotlib.axis_1">
    <g id="xtick_1">
     <g id="line2d_1">
      <defs>
       <path d="M 0 0 
L 0 -3.5 
" id="m6c9684a947" style="stroke:#000000;stroke-width:0.8;"/>
      </defs>
      <g>
       <use style="stroke:#000000;stroke-width:0.8;" x="46.359156" xlink:href="#m6c9684a947" y="116.052"/>
      </g>
     </g>
     <g id="line2d_2">
      <defs>
       <path d="M 0 0 
L 0 3.5 
" id="m7261faae98" style="stroke:#000000;stroke-width:0.8;"/>
      </defs>
      <g>
       <use style="stroke:#000000;stroke-width:0.8;" x="46.359156" xlink:href="#m7261faae98" y="10.8"/>
      </g>
     </g>
     <g id="text_1">
      <!-- −10 -->
      <defs>
       <path d="M 52.828125 31.203125 
L 5.5625 31.203125 
L 5.5625 39.40625 
L 52.828125 39.40625 
z
" id="ArialMT-2212"/>
       <path d="M 37.25 0 
L 28.46875 0 
L 28.46875 56 
Q 25.296875 52.984375 20.140625 49.953125 
Q 14.984375 46.921875 10.890625 45.40625 
L 10.890625 53.90625 
Q 18.265625 57.375 23.78125 62.296875 
Q 29.296875 67.234375 31.59375 71.875 
L 37.25 71.875 
z
" id="ArialMT-31"/>
       <path d="M 4.15625 35.296875 
Q 4.15625 48 6.765625 55.734375 
Q 9.375 63.484375 14.515625 67.671875 
Q 19.671875 71.875 27.484375 71.875 
Q 33.25 71.875 37.59375 69.546875 
Q 41.9375 67.234375 44.765625 62.859375 
Q 47.609375 58.5 49.21875 52.21875 
Q 50.828125 45.953125 50.828125 35.296875 
Q 50.828125 22.703125 48.234375 14.96875 
Q 45.65625 7.234375 40.5 3 
Q 35.359375 -1.21875 27.484375 -1.21875 
Q 17.140625 -1.21875 11.234375 6.203125 
Q 4.15625 15.140625 4.15625 35.296875 
z
M 13.1875 35.296875 
Q 13.1875 17.671875 17.3125 11.828125 
Q 21.4375 6 27.484375 6 
Q 33.546875 6 37.671875 11.859375 
Q 41.796875 17.71875 41.796875 35.296875 
Q 41.796875 52.984375 37.671875 58.78125 
Q 33.546875 64.59375 27.390625 64.59375 
Q 21.34375 64.59375 17.71875 59.46875 
Q 13.1875 52.9375 13.1875 35.296875 
z
" id="ArialMT-30"/>
      </defs>
      <g transform="translate(39.574156 125.27825)scale(0.08 -0.08)">
       <use xlink:href="#ArialMT-2212"/>
       <use x="58.398438" xlink:href="#ArialMT-31"/>
       <use x="114.013672" xlink:href="#ArialMT-30"/>
      </g>
     </g>
    </g>
    <g id="xtick_2">
     <g id="line2d_3">
      <g>
       <use style="stroke:#000000;stroke-width:0.8;" x="81.431782" xlink:href="#m6c9684a947" y="116.052"/>
      </g>
     </g>
     <g id="line2d_4">
      <g>
       <use style="stroke:#000000;stroke-width:0.8;" x="81.431782" xlink:href="#m7261faae98" y="10.8"/>
      </g>
     </g>
     <g id="text_2">
      <!-- −5 -->
      <defs>
       <path d="M 4.15625 18.75 
L 13.375 19.53125 
Q 14.40625 12.796875 18.140625 9.390625 
Q 21.875 6 27.15625 6 
Q 33.5 6 37.890625 10.78125 
Q 42.28125 15.578125 42.28125 23.484375 
Q 42.28125 31 38.0625 35.34375 
Q 33.84375 39.703125 27 39.703125 
Q 22.75 39.703125 19.328125 37.765625 
Q 15.921875 35.84375 13.96875 32.765625 
L 5.71875 33.84375 
L 12.640625 70.609375 
L 48.25 70.609375 
L 48.25 62.203125 
L 19.671875 62.203125 
L 15.828125 42.96875 
Q 22.265625 47.46875 29.34375 47.46875 
Q 38.71875 47.46875 45.15625 40.96875 
Q 51.609375 34.46875 51.609375 24.265625 
Q 51.609375 14.546875 45.953125 7.46875 
Q 39.0625 -1.21875 27.15625 -1.21875 
Q 17.390625 -1.21875 11.203125 4.25 
Q 5.03125 9.71875 4.15625 18.75 
z
" id="ArialMT-35"/>
      </defs>
      <g transform="translate(76.871157 125.27825)scale(0.08 -0.08)">
       <use xlink:href="#ArialMT-2212"/>
       <use x="58.398438" xlink:href="#ArialMT-35"/>
      </g>
     </g>
    </g>
    <g id="xtick_3">
     <g id="line2d_5">
      <g>
       <use style="stroke:#000000;stroke-width:0.8;" x="116.504408" xlink:href="#m6c9684a947" y="116.052"/>
      </g>
     </g>
     <g id="line2d_6">
      <g>
       <use style="stroke:#000000;stroke-width:0.8;" x="116.504408" xlink:href="#m7261faae98" y="10.8"/>
      </g>
     </g>
     <g id="text_3">
      <!-- 0 -->
      <g transform="translate(114.280033 125.27825)scale(0.08 -0.08)">
       <use xlink:href="#ArialMT-30"/>
      </g>
     </g>
    </g>
    <g id="xtick_4">
     <g id="line2d_7">
      <g>
       <use style="stroke:#000000;stroke-width:0.8;" x="151.577034" xlink:href="#m6c9684a947" y="116.052"/>
      </g>
     </g>
     <g id="line2d_8">
      <g>
       <use style="stroke:#000000;stroke-width:0.8;" x="151.577034" xlink:href="#m7261faae98" y="10.8"/>
      </g>
     </g>
     <g id="text_4">
      <!-- 5 -->
      <g transform="translate(149.352659 125.27825)scale(0.08 -0.08)">
       <use xlink:href="#ArialMT-35"/>
      </g>
     </g>
    </g>
    <g id="xtick_5">
     <g id="line2d_9">
      <g>
       <use style="stroke:#000000;stroke-width:0.8;" x="186.64966" xlink:href="#m6c9684a947" y="116.052"/>
      </g>
     </g>
     <g id="line2d_10">
      <g>
       <use style="stroke:#000000;stroke-width:0.8;" x="186.64966" xlink:href="#m7261faae98" y="10.8"/>
      </g>
     </g>
     <g id="text_5">
      <!-- 10 -->
      <g transform="translate(182.20091 125.27825)scale(0.08 -0.08)">
       <use xlink:href="#ArialMT-31"/>
       <use x="55.615234" xlink:href="#ArialMT-30"/>
      </g>
     </g>
    </g>
    <g id="text_6">
     <!-- applied field (V/μm) -->
     <defs>
      <path d="M 40.4375 6.390625 
Q 35.546875 2.25 31.03125 0.53125 
Q 26.515625 -1.171875 21.34375 -1.171875 
Q 12.796875 -1.171875 8.203125 3 
Q 3.609375 7.171875 3.609375 13.671875 
Q 3.609375 17.484375 5.34375 20.625 
Q 7.078125 23.78125 9.890625 25.6875 
Q 12.703125 27.59375 16.21875 28.5625 
Q 18.796875 29.25 24.03125 29.890625 
Q 34.671875 31.15625 39.703125 32.90625 
Q 39.75 34.71875 39.75 35.203125 
Q 39.75 40.578125 37.25 42.78125 
Q 33.890625 45.75 27.25 45.75 
Q 21.046875 45.75 18.09375 43.578125 
Q 15.140625 41.40625 13.71875 35.890625 
L 5.125 37.0625 
Q 6.296875 42.578125 8.984375 45.96875 
Q 11.671875 49.359375 16.75 51.1875 
Q 21.828125 53.03125 28.515625 53.03125 
Q 35.15625 53.03125 39.296875 51.46875 
Q 43.453125 49.90625 45.40625 47.53125 
Q 47.359375 45.171875 48.140625 41.546875 
Q 48.578125 39.3125 48.578125 33.453125 
L 48.578125 21.734375 
Q 48.578125 9.46875 49.140625 6.21875 
Q 49.703125 2.984375 51.375 0 
L 42.1875 0 
Q 40.828125 2.734375 40.4375 6.390625 
z
M 39.703125 26.03125 
Q 34.90625 24.078125 25.34375 22.703125 
Q 19.921875 21.921875 17.671875 20.9375 
Q 15.4375 19.96875 14.203125 18.09375 
Q 12.984375 16.21875 12.984375 13.921875 
Q 12.984375 10.40625 15.640625 8.0625 
Q 18.3125 5.71875 23.4375 5.71875 
Q 28.515625 5.71875 32.46875 7.9375 
Q 36.421875 10.15625 38.28125 14.015625 
Q 39.703125 17 39.703125 22.796875 
z
" id="ArialMT-61"/>
      <path d="M 6.59375 -19.875 
L 6.59375 51.859375 
L 14.59375 51.859375 
L 14.59375 45.125 
Q 17.4375 49.078125 21 51.046875 
Q 24.5625 53.03125 29.640625 53.03125 
Q 36.28125 53.03125 41.359375 49.609375 
Q 46.4375 46.1875 49.015625 39.953125 
Q 51.609375 33.734375 51.609375 26.3125 
Q 51.609375 18.359375 48.75 11.984375 
Q 45.90625 5.609375 40.453125 2.21875 
Q 35.015625 -1.171875 29 -1.171875 
Q 24.609375 -1.171875 21.109375 0.6875 
Q 17.625 2.546875 15.375 5.375 
L 15.375 -19.875 
z
M 14.546875 25.640625 
Q 14.546875 15.625 18.59375 10.84375 
Q 22.65625 6.0625 28.421875 6.0625 
Q 34.28125 6.0625 38.453125 11.015625 
Q 42.625 15.96875 42.625 26.375 
Q 42.625 36.28125 38.546875 41.203125 
Q 34.46875 46.140625 28.8125 46.140625 
Q 23.1875 46.140625 18.859375 40.890625 
Q 14.546875 35.640625 14.546875 25.640625 
z
" id="ArialMT-70"/>
      <path d="M 6.390625 0 
L 6.390625 71.578125 
L 15.1875 71.578125 
L 15.1875 0 
z
" id="ArialMT-6c"/>
      <path d="M 6.640625 61.46875 
L 6.640625 71.578125 
L 15.4375 71.578125 
L 15.4375 61.46875 
z
M 6.640625 0 
L 6.640625 51.859375 
L 15.4375 51.859375 
L 15.4375 0 
z
" id="ArialMT-69"/>
      <path d="M 42.09375 16.703125 
L 51.171875 15.578125 
Q 49.03125 7.625 43.21875 3.21875 
Q 37.40625 -1.171875 28.375 -1.171875 
Q 17 -1.171875 10.328125 5.828125 
Q 3.65625 12.84375 3.65625 25.484375 
Q 3.65625 38.578125 10.390625 45.796875 
Q 17.140625 53.03125 27.875 53.03125 
Q 38.28125 53.03125 44.875 45.953125 
Q 51.46875 38.875 51.46875 26.03125 
Q 51.46875 25.25 51.421875 23.6875 
L 12.75 23.6875 
Q 13.234375 15.140625 17.578125 10.59375 
Q 21.921875 6.0625 28.421875 6.0625 
Q 33.25 6.0625 36.671875 8.59375 
Q 40.09375 11.140625 42.09375 16.703125 
z
M 13.234375 30.90625 
L 42.1875 30.90625 
Q 41.609375 37.453125 38.875 40.71875 
Q 34.671875 45.796875 27.984375 45.796875 
Q 21.921875 45.796875 17.796875 41.75 
Q 13.671875 37.703125 13.234375 30.90625 
z
" id="ArialMT-65"/>
      <path d="M 40.234375 0 
L 40.234375 6.546875 
Q 35.296875 -1.171875 25.734375 -1.171875 
Q 19.53125 -1.171875 14.328125 2.25 
Q 9.125 5.671875 6.265625 11.796875 
Q 3.421875 17.921875 3.421875 25.875 
Q 3.421875 33.640625 6 39.96875 
Q 8.59375 46.296875 13.765625 49.65625 
Q 18.953125 53.03125 25.34375 53.03125 
Q 30.03125 53.03125 33.6875 51.046875 
Q 37.359375 49.078125 39.65625 45.90625 
L 39.65625 71.578125 
L 48.390625 71.578125 
L 48.390625 0 
z
M 12.453125 25.875 
Q 12.453125 15.921875 16.640625 10.984375 
Q 20.84375 6.0625 26.5625 6.0625 
Q 32.328125 6.0625 36.34375 10.765625 
Q 40.375 15.484375 40.375 25.140625 
Q 40.375 35.796875 36.265625 40.765625 
Q 32.171875 45.75 26.171875 45.75 
Q 20.3125 45.75 16.375 40.96875 
Q 12.453125 36.1875 12.453125 25.875 
z
" id="ArialMT-64"/>
      <path id="ArialMT-20"/>
      <path d="M 8.6875 0 
L 8.6875 45.015625 
L 0.921875 45.015625 
L 0.921875 51.859375 
L 8.6875 51.859375 
L 8.6875 57.375 
Q 8.6875 62.59375 9.625 65.140625 
Q 10.890625 68.5625 14.078125 70.671875 
Q 17.28125 72.796875 23.046875 72.796875 
Q 26.765625 72.796875 31.25 71.921875 
L 29.9375 64.265625 
Q 27.203125 64.75 24.75 64.75 
Q 20.75 64.75 19.09375 63.03125 
Q 17.4375 61.328125 17.4375 56.640625 
L 17.4375 51.859375 
L 27.546875 51.859375 
L 27.546875 45.015625 
L 17.4375 45.015625 
L 17.4375 0 
z
" id="ArialMT-66"/>
      <path d="M 23.390625 -21.046875 
Q 16.109375 -11.859375 11.078125 0.4375 
Q 6.0625 12.75 6.0625 25.921875 
Q 6.0625 37.546875 9.8125 48.1875 
Q 14.203125 60.546875 23.390625 72.796875 
L 29.6875 72.796875 
Q 23.78125 62.640625 21.875 58.296875 
Q 18.890625 51.5625 17.1875 44.234375 
Q 15.09375 35.109375 15.09375 25.875 
Q 15.09375 2.390625 29.6875 -21.046875 
z
" id="ArialMT-28"/>
      <path d="M 28.171875 0 
L 0.4375 71.578125 
L 10.6875 71.578125 
L 29.296875 19.578125 
Q 31.546875 13.328125 33.0625 7.859375 
Q 34.71875 13.71875 36.921875 19.578125 
L 56.25 71.578125 
L 65.921875 71.578125 
L 37.890625 0 
z
" id="ArialMT-56"/>
      <path d="M 0 -1.21875 
L 20.75 72.796875 
L 27.78125 72.796875 
L 7.078125 -1.21875 
z
" id="ArialMT-2f"/>
      <path d="M 49.703125 51.859375 
L 49.703125 0 
L 41.84375 0 
L 41.84375 6.15625 
Q 39.3125 2.25 36.8125 0.78125 
Q 33.40625 -1.21875 28.859375 -1.21875 
Q 24.8125 -1.21875 21.6875 0.390625 
Q 19.34375 1.609375 16.5 5.21875 
L 16.5 -19.875 
L 7.8125 -19.875 
L 7.8125 51.859375 
L 16.5 51.859375 
L 16.5 29.890625 
Q 16.5 17.921875 17.765625 14.375 
Q 19.046875 10.84375 21.890625 8.78125 
Q 24.75 6.734375 28.46875 6.734375 
Q 32.375 6.734375 35.453125 8.875 
Q 38.53125 11.03125 39.796875 14.421875 
Q 41.0625 17.828125 41.0625 29.734375 
L 41.0625 51.859375 
z
" id="ArialMT-3bc"/>
      <path d="M 6.59375 0 
L 6.59375 51.859375 
L 14.453125 51.859375 
L 14.453125 44.578125 
Q 16.890625 48.390625 20.9375 50.703125 
Q 25 53.03125 30.171875 53.03125 
Q 35.9375 53.03125 39.625 50.640625 
Q 43.3125 48.25 44.828125 43.953125 
Q 50.984375 53.03125 60.84375 53.03125 
Q 68.5625 53.03125 72.703125 48.75 
Q 76.859375 44.484375 76.859375 35.59375 
L 76.859375 0 
L 68.109375 0 
L 68.109375 32.671875 
Q 68.109375 37.9375 67.25 40.25 
Q 66.40625 42.578125 64.15625 43.984375 
Q 61.921875 45.40625 58.890625 45.40625 
Q 53.421875 45.40625 49.796875 41.765625 
Q 46.1875 38.140625 46.1875 30.125 
L 46.1875 0 
L 37.40625 0 
L 37.40625 33.6875 
Q 37.40625 39.546875 35.25 42.46875 
Q 33.109375 45.40625 28.21875 45.40625 
Q 24.515625 45.40625 21.359375 43.453125 
Q 18.21875 41.5 16.796875 37.734375 
Q 15.375 33.984375 15.375 26.90625 
L 15.375 0 
z
" id="ArialMT-6d"/>
      <path d="M 12.359375 -21.046875 
L 6.0625 -21.046875 
Q 20.65625 2.390625 20.65625 25.875 
Q 20.65625 35.0625 18.5625 44.09375 
Q 16.890625 51.421875 13.921875 58.15625 
Q 12.015625 62.546875 6.0625 72.796875 
L 12.359375 72.796875 
Q 21.53125 60.546875 25.921875 48.1875 
Q 29.6875 37.546875 29.6875 25.921875 
Q 29.6875 12.75 24.625 0.4375 
Q 19.578125 -11.859375 12.359375 -21.046875 
z
" id="ArialMT-29"/>
     </defs>
     <g transform="translate(76.030781 138.147937)scale(0.1 -0.1)">
      <use xlink:href="#ArialMT-61"/>
      <use x="55.615234" xlink:href="#ArialMT-70"/>
      <use x="111.230469" xlink:href="#ArialMT-70"/>
      <use x="166.845703" xlink:href="#ArialMT-6c"/>
      <use x="189.0625" xlink:href="#ArialMT-69"/>
      <use x="211.279297" xlink:href="#ArialMT-65"/>
      <use x="266.894531" xlink:href="#ArialMT-64"/>
      <use x="322.509766" xlink:href="#ArialMT-20"/>
      <use x="350.292969" xlink:href="#ArialMT-66"/>
      <use x="378.076172" xlink:href="#ArialMT-69"/>
      <use x="400.292969" xlink:href="#ArialMT-65"/>
      <use x="455.908203" xlink:href="#ArialMT-6c"/>
      <use x="478.125" xlink:href="#ArialMT-64"/>
      <use x="533.740234" xlink:href="#ArialMT-20"/>
      <use x="561.523438" xlink:href="#ArialMT-28"/>
      <use x="594.824219" xlink:href="#ArialMT-56"/>
      <use x="661.523438" xlink:href="#ArialMT-2f"/>
      <use x="689.306641" xlink:href="#ArialMT-3bc"/>
      <use x="746.923828" xlink:href="#ArialMT-6d"/>
      <use x="830.224609" xlink:href="#ArialMT-29"/>
     </g>
    </g>
   </g>
   <g id="matplotlib.axis_2">
    <g id="ytick_1">
     <g id="line2d_11">
      <defs>
       <path d="M 0 0 
L 3.5 0 
" id="m6cf63f9d5e" style="stroke:#000000;stroke-width:0.8;"/>
      </defs>
      <g>
       <use style="stroke:#000000;stroke-width:0.8;" x="36.1425" xlink:href="#m6cf63f9d5e" y="110.335882"/>
      </g>
     </g>
     <g id="text_7">
      <!-- 0 -->
      <g style="fill:#1f77b4;" transform="translate(28.19375 113.199007)scale(0.08 -0.08)">
       <use xlink:href="#ArialMT-30"/>
      </g>
     </g>
    </g>
    <g id="ytick_2">
     <g id="line2d_12">
      <g>
       <use style="stroke:#000000;stroke-width:0.8;" x="36.1425" xlink:href="#m6cf63f9d5e" y="84.48927"/>
      </g>
     </g>
     <g id="text_8">
      <!-- 10 -->
      <g style="fill:#1f77b4;" transform="translate(23.745 87.352395)scale(0.08 -0.08)">
       <use xlink:href="#ArialMT-31"/>
       <use x="55.615234" xlink:href="#ArialMT-30"/>
      </g>
     </g>
    </g>
    <g id="ytick_3">
     <g id="line2d_13">
      <g>
       <use style="stroke:#000000;stroke-width:0.8;" x="36.1425" xlink:href="#m6cf63f9d5e" y="58.642659"/>
      </g>
     </g>
     <g id="text_9">
      <!-- 20 -->
      <defs>
       <path d="M 50.34375 8.453125 
L 50.34375 0 
L 3.03125 0 
Q 2.9375 3.171875 4.046875 6.109375 
Q 5.859375 10.9375 9.828125 15.625 
Q 13.8125 20.3125 21.34375 26.46875 
Q 33.015625 36.03125 37.109375 41.625 
Q 41.21875 47.21875 41.21875 52.203125 
Q 41.21875 57.421875 37.46875 61 
Q 33.734375 64.59375 27.734375 64.59375 
Q 21.390625 64.59375 17.578125 60.78125 
Q 13.765625 56.984375 13.71875 50.25 
L 4.6875 51.171875 
Q 5.609375 61.28125 11.65625 66.578125 
Q 17.71875 71.875 27.9375 71.875 
Q 38.234375 71.875 44.234375 66.15625 
Q 50.25 60.453125 50.25 52 
Q 50.25 47.703125 48.484375 43.546875 
Q 46.734375 39.40625 42.65625 34.8125 
Q 38.578125 30.21875 29.109375 22.21875 
Q 21.1875 15.578125 18.9375 13.203125 
Q 16.703125 10.84375 15.234375 8.453125 
z
" id="ArialMT-32"/>
      </defs>
      <g style="fill:#1f77b4;" transform="translate(23.745 61.505784)scale(0.08 -0.08)">
       <use xlink:href="#ArialMT-32"/>
       <use x="55.615234" xlink:href="#ArialMT-30"/>
      </g>
     </g>
    </g>
    <g id="ytick_4">
     <g id="line2d_14">
      <g>
       <use style="stroke:#000000;stroke-width:0.8;" x="36.1425" xlink:href="#m6cf63f9d5e" y="32.796048"/>
      </g>
     </g>
     <g id="text_10">
      <!-- 30 -->
      <defs>
       <path d="M 4.203125 18.890625 
L 12.984375 20.0625 
Q 14.5 12.59375 18.140625 9.296875 
Q 21.78125 6 27 6 
Q 33.203125 6 37.46875 10.296875 
Q 41.75 14.59375 41.75 20.953125 
Q 41.75 27 37.796875 30.921875 
Q 33.84375 34.859375 27.734375 34.859375 
Q 25.25 34.859375 21.53125 33.890625 
L 22.515625 41.609375 
Q 23.390625 41.5 23.921875 41.5 
Q 29.546875 41.5 34.03125 44.421875 
Q 38.53125 47.359375 38.53125 53.46875 
Q 38.53125 58.296875 35.25 61.46875 
Q 31.984375 64.65625 26.8125 64.65625 
Q 21.6875 64.65625 18.265625 61.421875 
Q 14.84375 58.203125 13.875 51.765625 
L 5.078125 53.328125 
Q 6.6875 62.15625 12.390625 67.015625 
Q 18.109375 71.875 26.609375 71.875 
Q 32.46875 71.875 37.390625 69.359375 
Q 42.328125 66.84375 44.9375 62.5 
Q 47.5625 58.15625 47.5625 53.265625 
Q 47.5625 48.640625 45.0625 44.828125 
Q 42.578125 41.015625 37.703125 38.765625 
Q 44.046875 37.3125 47.5625 32.6875 
Q 51.078125 28.078125 51.078125 21.140625 
Q 51.078125 11.765625 44.234375 5.25 
Q 37.40625 -1.265625 26.953125 -1.265625 
Q 17.53125 -1.265625 11.296875 4.34375 
Q 5.078125 9.96875 4.203125 18.890625 
z
" id="ArialMT-33"/>
      </defs>
      <g style="fill:#1f77b4;" transform="translate(23.745 35.659173)scale(0.08 -0.08)">
       <use xlink:href="#ArialMT-33"/>
       <use x="55.615234" xlink:href="#ArialMT-30"/>
      </g>
     </g>
    </g>
    <g id="text_11">
     <!-- polarization current (nA) -->
     <defs>
      <path d="M 3.328125 25.921875 
Q 3.328125 40.328125 11.328125 47.265625 
Q 18.015625 53.03125 27.640625 53.03125 
Q 38.328125 53.03125 45.109375 46.015625 
Q 51.90625 39.015625 51.90625 26.65625 
Q 51.90625 16.65625 48.90625 10.90625 
Q 45.90625 5.171875 40.15625 2 
Q 34.421875 -1.171875 27.640625 -1.171875 
Q 16.75 -1.171875 10.03125 5.8125 
Q 3.328125 12.796875 3.328125 25.921875 
z
M 12.359375 25.921875 
Q 12.359375 15.96875 16.703125 11.015625 
Q 21.046875 6.0625 27.640625 6.0625 
Q 34.1875 6.0625 38.53125 11.03125 
Q 42.875 16.015625 42.875 26.21875 
Q 42.875 35.84375 38.5 40.796875 
Q 34.125 45.75 27.640625 45.75 
Q 21.046875 45.75 16.703125 40.8125 
Q 12.359375 35.890625 12.359375 25.921875 
z
" id="ArialMT-6f"/>
      <path d="M 6.5 0 
L 6.5 51.859375 
L 14.40625 51.859375 
L 14.40625 44 
Q 17.4375 49.515625 20 51.265625 
Q 22.5625 53.03125 25.640625 53.03125 
Q 30.078125 53.03125 34.671875 50.203125 
L 31.640625 42.046875 
Q 28.421875 43.953125 25.203125 43.953125 
Q 22.3125 43.953125 20.015625 42.21875 
Q 17.71875 40.484375 16.75 37.40625 
Q 15.28125 32.71875 15.28125 27.15625 
L 15.28125 0 
z
" id="ArialMT-72"/>
      <path d="M 1.953125 0 
L 1.953125 7.125 
L 34.96875 45.015625 
Q 29.34375 44.734375 25.046875 44.734375 
L 3.90625 44.734375 
L 3.90625 51.859375 
L 46.296875 51.859375 
L 46.296875 46.046875 
L 18.21875 13.140625 
L 12.796875 7.125 
Q 18.703125 7.5625 23.875 7.5625 
L 47.859375 7.5625 
L 47.859375 0 
z
" id="ArialMT-7a"/>
      <path d="M 25.78125 7.859375 
L 27.046875 0.09375 
Q 23.34375 -0.6875 20.40625 -0.6875 
Q 15.625 -0.6875 12.984375 0.828125 
Q 10.359375 2.34375 9.28125 4.8125 
Q 8.203125 7.28125 8.203125 15.1875 
L 8.203125 45.015625 
L 1.765625 45.015625 
L 1.765625 51.859375 
L 8.203125 51.859375 
L 8.203125 64.703125 
L 16.9375 69.96875 
L 16.9375 51.859375 
L 25.78125 51.859375 
L 25.78125 45.015625 
L 16.9375 45.015625 
L 16.9375 14.703125 
Q 16.9375 10.9375 17.40625 9.859375 
Q 17.875 8.796875 18.921875 8.15625 
Q 19.96875 7.515625 21.921875 7.515625 
Q 23.390625 7.515625 25.78125 7.859375 
z
" id="ArialMT-74"/>
      <path d="M 6.59375 0 
L 6.59375 51.859375 
L 14.5 51.859375 
L 14.5 44.484375 
Q 20.21875 53.03125 31 53.03125 
Q 35.6875 53.03125 39.625 51.34375 
Q 43.5625 49.65625 45.515625 46.921875 
Q 47.46875 44.1875 48.25 40.4375 
Q 48.734375 37.984375 48.734375 31.890625 
L 48.734375 0 
L 39.9375 0 
L 39.9375 31.546875 
Q 39.9375 36.921875 38.90625 39.578125 
Q 37.890625 42.234375 35.28125 43.8125 
Q 32.671875 45.40625 29.15625 45.40625 
Q 23.53125 45.40625 19.453125 41.84375 
Q 15.375 38.28125 15.375 28.328125 
L 15.375 0 
z
" id="ArialMT-6e"/>
      <path d="M 40.4375 19 
L 49.078125 17.875 
Q 47.65625 8.9375 41.8125 3.875 
Q 35.984375 -1.171875 27.484375 -1.171875 
Q 16.84375 -1.171875 10.375 5.78125 
Q 3.90625 12.75 3.90625 25.734375 
Q 3.90625 34.125 6.6875 40.421875 
Q 9.46875 46.734375 15.15625 49.875 
Q 20.84375 53.03125 27.546875 53.03125 
Q 35.984375 53.03125 41.359375 48.75 
Q 46.734375 44.484375 48.25 36.625 
L 39.703125 35.296875 
Q 38.484375 40.53125 35.375 43.15625 
Q 32.28125 45.796875 27.875 45.796875 
Q 21.234375 45.796875 17.078125 41.03125 
Q 12.9375 36.28125 12.9375 25.984375 
Q 12.9375 15.53125 16.9375 10.796875 
Q 20.953125 6.0625 27.390625 6.0625 
Q 32.5625 6.0625 36.03125 9.234375 
Q 39.5 12.40625 40.4375 19 
z
" id="ArialMT-63"/>
      <path d="M 40.578125 0 
L 40.578125 7.625 
Q 34.515625 -1.171875 24.125 -1.171875 
Q 19.53125 -1.171875 15.546875 0.578125 
Q 11.578125 2.34375 9.640625 5 
Q 7.71875 7.671875 6.9375 11.53125 
Q 6.390625 14.109375 6.390625 19.734375 
L 6.390625 51.859375 
L 15.1875 51.859375 
L 15.1875 23.09375 
Q 15.1875 16.21875 15.71875 13.8125 
Q 16.546875 10.359375 19.234375 8.375 
Q 21.921875 6.390625 25.875 6.390625 
Q 29.828125 6.390625 33.296875 8.421875 
Q 36.765625 10.453125 38.203125 13.9375 
Q 39.65625 17.4375 39.65625 24.078125 
L 39.65625 51.859375 
L 48.4375 51.859375 
L 48.4375 0 
z
" id="ArialMT-75"/>
      <path d="M -0.140625 0 
L 27.34375 71.578125 
L 37.546875 71.578125 
L 66.84375 0 
L 56.0625 0 
L 47.703125 21.6875 
L 17.78125 21.6875 
L 9.90625 0 
z
M 20.515625 29.390625 
L 44.78125 29.390625 
L 37.3125 49.21875 
Q 33.890625 58.25 32.234375 64.0625 
Q 30.859375 57.171875 28.375 50.390625 
z
" id="ArialMT-41"/>
     </defs>
     <g style="fill:#1f77b4;" transform="translate(17.640313 116.779125)rotate(-90)scale(0.1 -0.1)">
      <use xlink:href="#ArialMT-70"/>
      <use x="55.615234" xlink:href="#ArialMT-6f"/>
      <use x="111.230469" xlink:href="#ArialMT-6c"/>
      <use x="133.447266" xlink:href="#ArialMT-61"/>
      <use x="189.0625" xlink:href="#ArialMT-72"/>
      <use x="222.363281" xlink:href="#ArialMT-69"/>
      <use x="244.580078" xlink:href="#ArialMT-7a"/>
      <use x="294.580078" xlink:href="#ArialMT-61"/>
      <use x="350.195312" xlink:href="#ArialMT-74"/>
      <use x="377.978516" xlink:href="#ArialMT-69"/>
      <use x="400.195312" xlink:href="#ArialMT-6f"/>
      <use x="455.810547" xlink:href="#ArialMT-6e"/>
      <use x="511.425781" xlink:href="#ArialMT-20"/>
      <use x="539.208984" xlink:href="#ArialMT-63"/>
      <use x="589.208984" xlink:href="#ArialMT-75"/>
      <use x="644.824219" xlink:href="#ArialMT-72"/>
      <use x="678.125" xlink:href="#ArialMT-72"/>
      <use x="711.425781" xlink:href="#ArialMT-65"/>
      <use x="767.041016" xlink:href="#ArialMT-6e"/>
      <use x="822.65625" xlink:href="#ArialMT-74"/>
      <use x="850.439453" xlink:href="#ArialMT-20"/>
      <use x="878.222656" xlink:href="#ArialMT-28"/>
      <use x="911.523438" xlink:href="#ArialMT-6e"/>
      <use x="967.138672" xlink:href="#ArialMT-41"/>
      <use x="1033.837891" xlink:href="#ArialMT-29"/>
     </g>
    </g>
   </g>
   <g id="line2d_15">
    <defs>
     <path d="M 0 1.5 
C 0.397805 1.5 0.77937 1.341951 1.06066 1.06066 
C 1.341951 0.77937 1.5 0.397805 1.5 0 
C 1.5 -0.397805 1.341951 -0.77937 1.06066 -1.06066 
C 0.77937 -1.341951 0.397805 -1.5 0 -1.5 
C -0.397805 -1.5 -0.77937 -1.341951 -1.06066 -1.06066 
C -1.341951 -0.77937 -1.5 -0.397805 -1.5 0 
C -1.5 0.397805 -1.341951 0.77937 -1.06066 1.06066 
C -0.77937 1.341951 -0.397805 1.5 0 1.5 
z
" id="md35d45add2" style="stroke:#1f77b4;"/>
    </defs>
    <g clip-path="url(#pb4f565d1b7)">
     <use style="fill:#1f77b4;stroke:#1f77b4;" x="43.693636" xlink:href="#md35d45add2" y="110.335882"/>
     <use style="fill:#1f77b4;stroke:#1f77b4;" x="43.974217" xlink:href="#md35d45add2" y="108.124904"/>
     <use style="fill:#1f77b4;stroke:#1f77b4;" x="44.184653" xlink:href="#md35d45add2" y="108.285626"/>
     <use style="fill:#1f77b4;stroke:#1f77b4;" x="45.377122" xlink:href="#md35d45add2" y="109.592698"/>
     <use style="fill:#1f77b4;stroke:#1f77b4;" x="45.587558" xlink:href="#md35d45add2" y="107.440149"/>
     <use style="fill:#1f77b4;stroke:#1f77b4;" x="45.868139" xlink:href="#md35d45add2" y="107.981835"/>
     <use style="fill:#1f77b4;stroke:#1f77b4;" x="47.130754" xlink:href="#md35d45add2" y="109.26925"/>
     <use style="fill:#1f77b4;stroke:#1f77b4;" x="47.390291" xlink:href="#md35d45add2" y="107.281281"/>
     <use style="fill:#1f77b4;stroke:#1f77b4;" x="47.579683" xlink:href="#md35d45add2" y="107.290236"/>
     <use style="fill:#1f77b4;stroke:#1f77b4;" x="48.709022" xlink:href="#md35d45add2" y="108.956176"/>
     <use style="fill:#1f77b4;stroke:#1f77b4;" x="48.898414" xlink:href="#md35d45add2" y="106.768169"/>
     <use style="fill:#1f77b4;stroke:#1f77b4;" x="49.010646" xlink:href="#md35d45add2" y="107.090815"/>
     <use style="fill:#1f77b4;stroke:#1f77b4;" x="49.852389" xlink:href="#md35d45add2" y="108.302328"/>
     <use style="fill:#1f77b4;stroke:#1f77b4;" x="50.006709" xlink:href="#md35d45add2" y="106.16292"/>
     <use style="fill:#1f77b4;stroke:#1f77b4;" x="50.189087" xlink:href="#md35d45add2" y="106.504678"/>
     <use style="fill:#1f77b4;stroke:#1f77b4;" x="51.220222" xlink:href="#md35d45add2" y="107.931919"/>
     <use style="fill:#1f77b4;stroke:#1f77b4;" x="51.46573" xlink:href="#md35d45add2" y="105.950467"/>
     <use style="fill:#1f77b4;stroke:#1f77b4;" x="51.690195" xlink:href="#md35d45add2" y="105.846206"/>
     <use style="fill:#1f77b4;stroke:#1f77b4;" x="52.987882" xlink:href="#md35d45add2" y="106.723169"/>
     <use style="fill:#1f77b4;stroke:#1f77b4;" x="53.219362" xlink:href="#md35d45add2" y="105.239319"/>
     <use style="fill:#1f77b4;stroke:#1f77b4;" x="53.422783" xlink:href="#md35d45add2" y="105.706997"/>
     <use style="fill:#1f77b4;stroke:#1f77b4;" x="54.524063" xlink:href="#md35d45add2" y="105.873943"/>
     <use style="fill:#1f77b4;stroke:#1f77b4;" x="54.734499" xlink:href="#md35d45add2" y="105.052493"/>
     <use style="fill:#1f77b4;stroke:#1f77b4;" x="54.895833" xlink:href="#md35d45add2" y="104.828938"/>
     <use style="fill:#1f77b4;stroke:#1f77b4;" x="55.997114" xlink:href="#md35d45add2" y="105.642049"/>
     <use style="fill:#1f77b4;stroke:#1f77b4;" x="56.214564" xlink:href="#md35d45add2" y="104.474874"/>
     <use style="fill:#1f77b4;stroke:#1f77b4;" x="56.432014" xlink:href="#md35d45add2" y="104.535413"/>
     <use style="fill:#1f77b4;stroke:#1f77b4;" x="57.624483" xlink:href="#md35d45add2" y="105.273861"/>
     <use style="fill:#1f77b4;stroke:#1f77b4;" x="57.855963" xlink:href="#md35d45add2" y="104.332789"/>
     <use style="fill:#1f77b4;stroke:#1f77b4;" x="58.080428" xlink:href="#md35d45add2" y="104.176835"/>
     <use style="fill:#1f77b4;stroke:#1f77b4;" x="59.090519" xlink:href="#md35d45add2" y="104.431369"/>
     <use style="fill:#1f77b4;stroke:#1f77b4;" x="59.265882" xlink:href="#md35d45add2" y="103.697288"/>
     <use style="fill:#1f77b4;stroke:#1f77b4;" x="59.462289" xlink:href="#md35d45add2" y="103.114975"/>
     <use style="fill:#1f77b4;stroke:#1f77b4;" x="60.598642" xlink:href="#md35d45add2" y="104.08626"/>
     <use style="fill:#1f77b4;stroke:#1f77b4;" x="60.823107" xlink:href="#md35d45add2" y="103.051521"/>
     <use style="fill:#1f77b4;stroke:#1f77b4;" x="61.005485" xlink:href="#md35d45add2" y="102.69542"/>
     <use style="fill:#1f77b4;stroke:#1f77b4;" x="61.987518" xlink:href="#md35d45add2" y="103.350685"/>
     <use style="fill:#1f77b4;stroke:#1f77b4;" x="62.190939" xlink:href="#md35d45add2" y="102.616496"/>
     <use style="fill:#1f77b4;stroke:#1f77b4;" x="62.359288" xlink:href="#md35d45add2" y="101.762902"/>
     <use style="fill:#1f77b4;stroke:#1f77b4;" x="63.36938" xlink:href="#md35d45add2" y="102.405135"/>
     <use style="fill:#1f77b4;stroke:#1f77b4;" x="63.565786" xlink:href="#md35d45add2" y="101.784051"/>
     <use style="fill:#1f77b4;stroke:#1f77b4;" x="63.762193" xlink:href="#md35d45add2" y="101.330971"/>
     <use style="fill:#1f77b4;stroke:#1f77b4;" x="64.793328" xlink:href="#md35d45add2" y="102.00866"/>
     <use style="fill:#1f77b4;stroke:#1f77b4;" x="64.996749" xlink:href="#md35d45add2" y="101.184008"/>
     <use style="fill:#1f77b4;stroke:#1f77b4;" x="65.200171" xlink:href="#md35d45add2" y="100.617821"/>
     <use style="fill:#1f77b4;stroke:#1f77b4;" x="66.462785" xlink:href="#md35d45add2" y="101.155684"/>
     <use style="fill:#1f77b4;stroke:#1f77b4;" x="66.715308" xlink:href="#md35d45add2" y="100.626138"/>
     <use style="fill:#1f77b4;stroke:#1f77b4;" x="66.953802" xlink:href="#md35d45add2" y="99.790363"/>
     <use style="fill:#1f77b4;stroke:#1f77b4;" x="68.195373" xlink:href="#md35d45add2" y="100.834256"/>
     <use style="fill:#1f77b4;stroke:#1f77b4;" x="68.37775" xlink:href="#md35d45add2" y="99.773834"/>
     <use style="fill:#1f77b4;stroke:#1f77b4;" x="68.525056" xlink:href="#md35d45add2" y="98.945523"/>
     <use style="fill:#1f77b4;stroke:#1f77b4;" x="69.317697" xlink:href="#md35d45add2" y="99.731405"/>
     <use style="fill:#1f77b4;stroke:#1f77b4;" x="69.500075" xlink:href="#md35d45add2" y="98.828648"/>
     <use style="fill:#1f77b4;stroke:#1f77b4;" x="69.668423" xlink:href="#md35d45add2" y="97.92853"/>
     <use style="fill:#1f77b4;stroke:#1f77b4;" x="70.685529" xlink:href="#md35d45add2" y="98.39304"/>
     <use style="fill:#1f77b4;stroke:#1f77b4;" x="70.924023" xlink:href="#md35d45add2" y="97.973396"/>
     <use style="fill:#1f77b4;stroke:#1f77b4;" x="71.106401" xlink:href="#md35d45add2" y="97.013777"/>
     <use style="fill:#1f77b4;stroke:#1f77b4;" x="72.354986" xlink:href="#md35d45add2" y="97.73779"/>
     <use style="fill:#1f77b4;stroke:#1f77b4;" x="72.614524" xlink:href="#md35d45add2" y="96.765593"/>
     <use style="fill:#1f77b4;stroke:#1f77b4;" x="72.782872" xlink:href="#md35d45add2" y="96.038648"/>
     <use style="fill:#1f77b4;stroke:#1f77b4;" x="73.835051" xlink:href="#md35d45add2" y="96.15603"/>
     <use style="fill:#1f77b4;stroke:#1f77b4;" x="74.073545" xlink:href="#md35d45add2" y="95.715709"/>
     <use style="fill:#1f77b4;stroke:#1f77b4;" x="74.269952" xlink:href="#md35d45add2" y="94.695296"/>
     <use style="fill:#1f77b4;stroke:#1f77b4;" x="75.420334" xlink:href="#md35d45add2" y="95.159933"/>
     <use style="fill:#1f77b4;stroke:#1f77b4;" x="75.637784" xlink:href="#md35d45add2" y="94.540706"/>
     <use style="fill:#1f77b4;stroke:#1f77b4;" x="75.799118" xlink:href="#md35d45add2" y="93.337564"/>
     <use style="fill:#1f77b4;stroke:#1f77b4;" x="76.900399" xlink:href="#md35d45add2" y="93.634906"/>
     <use style="fill:#1f77b4;stroke:#1f77b4;" x="77.124863" xlink:href="#md35d45add2" y="93.107408"/>
     <use style="fill:#1f77b4;stroke:#1f77b4;" x="77.349328" xlink:href="#md35d45add2" y="92.014514"/>
     <use style="fill:#1f77b4;stroke:#1f77b4;" x="78.422551" xlink:href="#md35d45add2" y="91.627935"/>
     <use style="fill:#1f77b4;stroke:#1f77b4;" x="78.611943" xlink:href="#md35d45add2" y="91.516703"/>
     <use style="fill:#1f77b4;stroke:#1f77b4;" x="78.801335" xlink:href="#md35d45add2" y="89.903784"/>
     <use style="fill:#1f77b4;stroke:#1f77b4;" x="79.75531" xlink:href="#md35d45add2" y="89.914285"/>
     <use style="fill:#1f77b4;stroke:#1f77b4;" x="79.930673" xlink:href="#md35d45add2" y="89.788892"/>
     <use style="fill:#1f77b4;stroke:#1f77b4;" x="80.077979" xlink:href="#md35d45add2" y="87.748375"/>
     <use style="fill:#1f77b4;stroke:#1f77b4;" x="81.24239" xlink:href="#md35d45add2" y="87.512514"/>
     <use style="fill:#1f77b4;stroke:#1f77b4;" x="81.586101" xlink:href="#md35d45add2" y="87.713426"/>
     <use style="fill:#1f77b4;stroke:#1f77b4;" x="81.852653" xlink:href="#md35d45add2" y="85.7726"/>
     <use style="fill:#1f77b4;stroke:#1f77b4;" x="82.939905" xlink:href="#md35d45add2" y="85.545439"/>
     <use style="fill:#1f77b4;stroke:#1f77b4;" x="83.143326" xlink:href="#md35d45add2" y="85.4936"/>
     <use style="fill:#1f77b4;stroke:#1f77b4;" x="83.30466" xlink:href="#md35d45add2" y="83.014928"/>
     <use style="fill:#1f77b4;stroke:#1f77b4;" x="84.553246" xlink:href="#md35d45add2" y="83.136715"/>
     <use style="fill:#1f77b4;stroke:#1f77b4;" x="84.833827" xlink:href="#md35d45add2" y="83.07876"/>
     <use style="fill:#1f77b4;stroke:#1f77b4;" x="85.058291" xlink:href="#md35d45add2" y="80.880924"/>
     <use style="fill:#1f77b4;stroke:#1f77b4;" x="86.306877" xlink:href="#md35d45add2" y="80.417286"/>
     <use style="fill:#1f77b4;stroke:#1f77b4;" x="86.538356" xlink:href="#md35d45add2" y="80.329152"/>
     <use style="fill:#1f77b4;stroke:#1f77b4;" x="86.69969" xlink:href="#md35d45add2" y="77.688939"/>
     <use style="fill:#1f77b4;stroke:#1f77b4;" x="87.716796" xlink:href="#md35d45add2" y="77.26174"/>
     <use style="fill:#1f77b4;stroke:#1f77b4;" x="87.969319" xlink:href="#md35d45add2" y="76.562899"/>
     <use style="fill:#1f77b4;stroke:#1f77b4;" x="88.165726" xlink:href="#md35d45add2" y="74.184246"/>
     <use style="fill:#1f77b4;stroke:#1f77b4;" x="89.28805" xlink:href="#md35d45add2" y="73.249398"/>
     <use style="fill:#1f77b4;stroke:#1f77b4;" x="89.5055" xlink:href="#md35d45add2" y="73.167781"/>
     <use style="fill:#1f77b4;stroke:#1f77b4;" x="89.645791" xlink:href="#md35d45add2" y="70.362877"/>
     <use style="fill:#1f77b4;stroke:#1f77b4;" x="90.578723" xlink:href="#md35d45add2" y="69.419074"/>
     <use style="fill:#1f77b4;stroke:#1f77b4;" x="90.796173" xlink:href="#md35d45add2" y="68.885141"/>
     <use style="fill:#1f77b4;stroke:#1f77b4;" x="90.978551" xlink:href="#md35d45add2" y="66.280385"/>
     <use style="fill:#1f77b4;stroke:#1f77b4;" x="92.079831" xlink:href="#md35d45add2" y="64.870688"/>
     <use style="fill:#1f77b4;stroke:#1f77b4;" x="92.304296" xlink:href="#md35d45add2" y="64.391651"/>
     <use style="fill:#1f77b4;stroke:#1f77b4;" x="92.54279" xlink:href="#md35d45add2" y="61.734984"/>
     <use style="fill:#1f77b4;stroke:#1f77b4;" x="93.763317" xlink:href="#md35d45add2" y="59.979124"/>
     <use style="fill:#1f77b4;stroke:#1f77b4;" x="93.980767" xlink:href="#md35d45add2" y="59.819966"/>
     <use style="fill:#1f77b4;stroke:#1f77b4;" x="94.240305" xlink:href="#md35d45add2" y="57.017829"/>
     <use style="fill:#1f77b4;stroke:#1f77b4;" x="95.552021" xlink:href="#md35d45add2" y="55.109765"/>
     <use style="fill:#1f77b4;stroke:#1f77b4;" x="95.86066" xlink:href="#md35d45add2" y="54.552862"/>
     <use style="fill:#1f77b4;stroke:#1f77b4;" x="96.113183" xlink:href="#md35d45add2" y="52.09645"/>
     <use style="fill:#1f77b4;stroke:#1f77b4;" x="97.27058" xlink:href="#md35d45add2" y="49.949906"/>
     <use style="fill:#1f77b4;stroke:#1f77b4;" x="97.495045" xlink:href="#md35d45add2" y="49.729336"/>
     <use style="fill:#1f77b4;stroke:#1f77b4;" x="97.663393" xlink:href="#md35d45add2" y="46.98894"/>
     <use style="fill:#1f77b4;stroke:#1f77b4;" x="98.533194" xlink:href="#md35d45add2" y="45.25383"/>
     <use style="fill:#1f77b4;stroke:#1f77b4;" x="98.74363" xlink:href="#md35d45add2" y="44.82008"/>
     <use style="fill:#1f77b4;stroke:#1f77b4;" x="98.89795" xlink:href="#md35d45add2" y="42.31882"/>
     <use style="fill:#1f77b4;stroke:#1f77b4;" x="99.908041" xlink:href="#md35d45add2" y="40.583164"/>
     <use style="fill:#1f77b4;stroke:#1f77b4;" x="100.132506" xlink:href="#md35d45add2" y="40.491827"/>
     <use style="fill:#1f77b4;stroke:#1f77b4;" x="100.314884" xlink:href="#md35d45add2" y="37.848301"/>
     <use style="fill:#1f77b4;stroke:#1f77b4;" x="101.794948" xlink:href="#md35d45add2" y="36.75375"/>
     <use style="fill:#1f77b4;stroke:#1f77b4;" x="102.026428" xlink:href="#md35d45add2" y="36.807772"/>
     <use style="fill:#1f77b4;stroke:#1f77b4;" x="102.250893" xlink:href="#md35d45add2" y="34.46778"/>
     <use style="fill:#1f77b4;stroke:#1f77b4;" x="103.310086" xlink:href="#md35d45add2" y="33.788413"/>
     <use style="fill:#1f77b4;stroke:#1f77b4;" x="103.527536" xlink:href="#md35d45add2" y="32.660008"/>
     <use style="fill:#1f77b4;stroke:#1f77b4;" x="103.723943" xlink:href="#md35d45add2" y="31.612456"/>
     <use style="fill:#1f77b4;stroke:#1f77b4;" x="104.888354" xlink:href="#md35d45add2" y="31.174991"/>
     <use style="fill:#1f77b4;stroke:#1f77b4;" x="105.112819" xlink:href="#md35d45add2" y="30.282409"/>
     <use style="fill:#1f77b4;stroke:#1f77b4;" x="105.309226" xlink:href="#md35d45add2" y="29.015161"/>
     <use style="fill:#1f77b4;stroke:#1f77b4;" x="106.35439" xlink:href="#md35d45add2" y="28.768779"/>
     <use style="fill:#1f77b4;stroke:#1f77b4;" x="106.515724" xlink:href="#md35d45add2" y="27.950752"/>
     <use style="fill:#1f77b4;stroke:#1f77b4;" x="106.663029" xlink:href="#md35d45add2" y="26.777389"/>
     <use style="fill:#1f77b4;stroke:#1f77b4;" x="107.539845" xlink:href="#md35d45add2" y="26.221503"/>
     <use style="fill:#1f77b4;stroke:#1f77b4;" x="107.743266" xlink:href="#md35d45add2" y="25.371004"/>
     <use style="fill:#1f77b4;stroke:#1f77b4;" x="107.925643" xlink:href="#md35d45add2" y="24.123195"/>
     <use style="fill:#1f77b4;stroke:#1f77b4;" x="109.104084" xlink:href="#md35d45add2" y="23.950604"/>
     <use style="fill:#1f77b4;stroke:#1f77b4;" x="109.37765" xlink:href="#md35d45add2" y="22.796134"/>
     <use style="fill:#1f77b4;stroke:#1f77b4;" x="109.670156" xlink:href="#md35d45add2" y="22.089705"/>
     <use style="fill:#1f77b4;stroke:#1f77b4;" x="111.160743" xlink:href="#md35d45add2" y="22.111364"/>
     <use style="fill:#1f77b4;stroke:#1f77b4;" x="111.418877" xlink:href="#md35d45add2" y="21.221235"/>
     <use style="fill:#1f77b4;stroke:#1f77b4;" x="111.615985" xlink:href="#md35d45add2" y="19.993077"/>
     <use style="fill:#1f77b4;stroke:#1f77b4;" x="112.711654" xlink:href="#md35d45add2" y="20.364233"/>
     <use style="fill:#1f77b4;stroke:#1f77b4;" x="112.909464" xlink:href="#md35d45add2" y="18.929622"/>
     <use style="fill:#1f77b4;stroke:#1f77b4;" x="113.079215" xlink:href="#md35d45add2" y="18.335135"/>
     <use style="fill:#1f77b4;stroke:#1f77b4;" x="114.021967" xlink:href="#md35d45add2" y="18.649378"/>
     <use style="fill:#1f77b4;stroke:#1f77b4;" x="114.240821" xlink:href="#md35d45add2" y="17.250224"/>
     <use style="fill:#1f77b4;stroke:#1f77b4;" x="114.44354" xlink:href="#md35d45add2" y="16.942183"/>
     <use style="fill:#1f77b4;stroke:#1f77b4;" x="115.775599" xlink:href="#md35d45add2" y="17.615147"/>
     <use style="fill:#1f77b4;stroke:#1f77b4;" x="116.060459" xlink:href="#md35d45add2" y="16.982767"/>
     <use style="fill:#1f77b4;stroke:#1f77b4;" x="116.312561" xlink:href="#md35d45add2" y="16.27081"/>
     <use style="fill:#1f77b4;stroke:#1f77b4;" x="117.595166" xlink:href="#md35d45add2" y="17.270118"/>
     <use style="fill:#1f77b4;stroke:#1f77b4;" x="117.776141" xlink:href="#md35d45add2" y="16.176748"/>
     <use style="fill:#1f77b4;stroke:#1f77b4;" x="117.929058" xlink:href="#md35d45add2" y="15.652113"/>
     <use style="fill:#1f77b4;stroke:#1f77b4;" x="118.844453" xlink:href="#md35d45add2" y="17.168652"/>
     <use style="fill:#1f77b4;stroke:#1f77b4;" x="119.041562" xlink:href="#md35d45add2" y="16.19896"/>
     <use style="fill:#1f77b4;stroke:#1f77b4;" x="119.19518" xlink:href="#md35d45add2" y="15.584182"/>
     <use style="fill:#1f77b4;stroke:#1f77b4;" x="120.302072" xlink:href="#md35d45add2" y="17.020175"/>
     <use style="fill:#1f77b4;stroke:#1f77b4;" x="120.603696" xlink:href="#md35d45add2" y="16.162831"/>
     <use style="fill:#1f77b4;stroke:#1f77b4;" x="120.850608" xlink:href="#md35d45add2" y="15.913742"/>
     <use style="fill:#1f77b4;stroke:#1f77b4;" x="122.439398" xlink:href="#md35d45add2" y="17.169194"/>
     <use style="fill:#1f77b4;stroke:#1f77b4;" x="122.664564" xlink:href="#md35d45add2" y="16.716325"/>
     <use style="fill:#1f77b4;stroke:#1f77b4;" x="123.687282" xlink:href="#md35d45add2" y="18.036335"/>
     <use style="fill:#1f77b4;stroke:#1f77b4;" x="123.834587" xlink:href="#md35d45add2" y="17.702987"/>
     <use style="fill:#1f77b4;stroke:#1f77b4;" x="125.139288" xlink:href="#md35d45add2" y="18.867466"/>
     <use style="fill:#1f77b4;stroke:#1f77b4;" x="125.363753" xlink:href="#md35d45add2" y="18.879515"/>
     <use style="fill:#1f77b4;stroke:#1f77b4;" x="126.710542" xlink:href="#md35d45add2" y="21.239237"/>
     <use style="fill:#1f77b4;stroke:#1f77b4;" x="126.913963" xlink:href="#md35d45add2" y="21.151212"/>
     <use style="fill:#1f77b4;stroke:#1f77b4;" x="128.197621" xlink:href="#md35d45add2" y="23.094403"/>
     <use style="fill:#1f77b4;stroke:#1f77b4;" x="128.394028" xlink:href="#md35d45add2" y="23.584723"/>
     <use style="fill:#1f77b4;stroke:#1f77b4;" x="129.642613" xlink:href="#md35d45add2" y="26.261448"/>
     <use style="fill:#1f77b4;stroke:#1f77b4;" x="129.83902" xlink:href="#md35d45add2" y="26.764692"/>
     <use style="fill:#1f77b4;stroke:#1f77b4;" x="131.220882" xlink:href="#md35d45add2" y="29.502283"/>
     <use style="fill:#1f77b4;stroke:#1f77b4;" x="131.452361" xlink:href="#md35d45add2" y="29.866466"/>
     <use style="fill:#1f77b4;stroke:#1f77b4;" x="132.834222" xlink:href="#md35d45add2" y="32.8496"/>
     <use style="fill:#1f77b4;stroke:#1f77b4;" x="133.044658" xlink:href="#md35d45add2" y="33.617717"/>
     <use style="fill:#1f77b4;stroke:#1f77b4;" x="134.538752" xlink:href="#md35d45add2" y="36.833034"/>
     <use style="fill:#1f77b4;stroke:#1f77b4;" x="134.812319" xlink:href="#md35d45add2" y="37.410286"/>
     <use style="fill:#1f77b4;stroke:#1f77b4;" x="136.229253" xlink:href="#md35d45add2" y="40.267282"/>
     <use style="fill:#1f77b4;stroke:#1f77b4;" x="136.439688" xlink:href="#md35d45add2" y="41.306789"/>
     <use style="fill:#1f77b4;stroke:#1f77b4;" x="137.716332" xlink:href="#md35d45add2" y="44.24187"/>
     <use style="fill:#1f77b4;stroke:#1f77b4;" x="137.933782" xlink:href="#md35d45add2" y="44.522105"/>
     <use style="fill:#1f77b4;stroke:#1f77b4;" x="139.350716" xlink:href="#md35d45add2" y="47.3791"/>
     <use style="fill:#1f77b4;stroke:#1f77b4;" x="139.568167" xlink:href="#md35d45add2" y="47.749799"/>
     <use style="fill:#1f77b4;stroke:#1f77b4;" x="141.013159" xlink:href="#md35d45add2" y="50.671301"/>
     <use style="fill:#1f77b4;stroke:#1f77b4;" x="141.223595" xlink:href="#md35d45add2" y="50.8191"/>
     <use style="fill:#1f77b4;stroke:#1f77b4;" x="142.233686" xlink:href="#md35d45add2" y="54.22692"/>
     <use style="fill:#1f77b4;stroke:#1f77b4;" x="142.416064" xlink:href="#md35d45add2" y="54.516984"/>
     <use style="fill:#1f77b4;stroke:#1f77b4;" x="143.664649" xlink:href="#md35d45add2" y="57.465098"/>
     <use style="fill:#1f77b4;stroke:#1f77b4;" x="143.847027" xlink:href="#md35d45add2" y="58.711487"/>
     <use style="fill:#1f77b4;stroke:#1f77b4;" x="145.285005" xlink:href="#md35d45add2" y="62.069179"/>
     <use style="fill:#1f77b4;stroke:#1f77b4;" x="145.509469" xlink:href="#md35d45add2" y="62.572314"/>
     <use style="fill:#1f77b4;stroke:#1f77b4;" x="146.680895" xlink:href="#md35d45add2" y="66.27351"/>
     <use style="fill:#1f77b4;stroke:#1f77b4;" x="146.863273" xlink:href="#md35d45add2" y="66.718654"/>
     <use style="fill:#1f77b4;stroke:#1f77b4;" x="148.167974" xlink:href="#md35d45add2" y="70.222252"/>
     <use style="fill:#1f77b4;stroke:#1f77b4;" x="148.37841" xlink:href="#md35d45add2" y="70.925753"/>
     <use style="fill:#1f77b4;stroke:#1f77b4;" x="149.669083" xlink:href="#md35d45add2" y="74.461713"/>
     <use style="fill:#1f77b4;stroke:#1f77b4;" x="149.893548" xlink:href="#md35d45add2" y="75.094081"/>
     <use style="fill:#1f77b4;stroke:#1f77b4;" x="151.394656" xlink:href="#md35d45add2" y="78.260908"/>
     <use style="fill:#1f77b4;stroke:#1f77b4;" x="151.626135" xlink:href="#md35d45add2" y="79.555568"/>
     <use style="fill:#1f77b4;stroke:#1f77b4;" x="152.930837" xlink:href="#md35d45add2" y="81.934838"/>
     <use style="fill:#1f77b4;stroke:#1f77b4;" x="153.092171" xlink:href="#md35d45add2" y="81.065118"/>
     <use style="fill:#1f77b4;stroke:#1f77b4;" x="154.347771" xlink:href="#md35d45add2" y="85.01153"/>
     <use style="fill:#1f77b4;stroke:#1f77b4;" x="154.523134" xlink:href="#md35d45add2" y="85.039924"/>
     <use style="fill:#1f77b4;stroke:#1f77b4;" x="155.947083" xlink:href="#md35d45add2" y="87.92597"/>
     <use style="fill:#1f77b4;stroke:#1f77b4;" x="156.136475" xlink:href="#md35d45add2" y="87.482609"/>
     <use style="fill:#1f77b4;stroke:#1f77b4;" x="157.665642" xlink:href="#md35d45add2" y="90.649327"/>
     <use style="fill:#1f77b4;stroke:#1f77b4;" x="157.848019" xlink:href="#md35d45add2" y="90.474152"/>
     <use style="fill:#1f77b4;stroke:#1f77b4;" x="159.16675" xlink:href="#md35d45add2" y="93.221682"/>
     <use style="fill:#1f77b4;stroke:#1f77b4;" x="159.335099" xlink:href="#md35d45add2" y="92.755787"/>
     <use style="fill:#1f77b4;stroke:#1f77b4;" x="160.688902" xlink:href="#md35d45add2" y="95.235022"/>
     <use style="fill:#1f77b4;stroke:#1f77b4;" x="160.878294" xlink:href="#md35d45add2" y="94.468579"/>
     <use style="fill:#1f77b4;stroke:#1f77b4;" x="162.204039" xlink:href="#md35d45add2" y="96.831612"/>
     <use style="fill:#1f77b4;stroke:#1f77b4;" x="162.400446" xlink:href="#md35d45add2" y="96.546535"/>
     <use style="fill:#1f77b4;stroke:#1f77b4;" x="163.74022" xlink:href="#md35d45add2" y="98.683357"/>
     <use style="fill:#1f77b4;stroke:#1f77b4;" x="163.950656" xlink:href="#md35d45add2" y="97.176972"/>
     <use style="fill:#1f77b4;stroke:#1f77b4;" x="165.297445" xlink:href="#md35d45add2" y="99.898546"/>
     <use style="fill:#1f77b4;stroke:#1f77b4;" x="165.500866" xlink:href="#md35d45add2" y="99.616672"/>
     <use style="fill:#1f77b4;stroke:#1f77b4;" x="166.77751" xlink:href="#md35d45add2" y="101.362809"/>
     <use style="fill:#1f77b4;stroke:#1f77b4;" x="166.9178" xlink:href="#md35d45add2" y="100.832407"/>
     <use style="fill:#1f77b4;stroke:#1f77b4;" x="168.089226" xlink:href="#md35d45add2" y="102.310796"/>
     <use style="fill:#1f77b4;stroke:#1f77b4;" x="168.278618" xlink:href="#md35d45add2" y="101.544352"/>
     <use style="fill:#1f77b4;stroke:#1f77b4;" x="169.590334" xlink:href="#md35d45add2" y="103.267737"/>
     <use style="fill:#1f77b4;stroke:#1f77b4;" x="169.772712" xlink:href="#md35d45add2" y="103.079639"/>
     <use style="fill:#1f77b4;stroke:#1f77b4;" x="171.077414" xlink:href="#md35d45add2" y="104.205349"/>
     <use style="fill:#1f77b4;stroke:#1f77b4;" x="171.294864" xlink:href="#md35d45add2" y="103.606799"/>
     <use style="fill:#1f77b4;stroke:#1f77b4;" x="172.697769" xlink:href="#md35d45add2" y="105.190904"/>
     <use style="fill:#1f77b4;stroke:#1f77b4;" x="172.852089" xlink:href="#md35d45add2" y="104.666909"/>
     <use style="fill:#1f77b4;stroke:#1f77b4;" x="174.191863" xlink:href="#md35d45add2" y="105.653556"/>
     <use style="fill:#1f77b4;stroke:#1f77b4;" x="174.402299" xlink:href="#md35d45add2" y="105.504119"/>
     <use style="fill:#1f77b4;stroke:#1f77b4;" x="175.594768" xlink:href="#md35d45add2" y="106.268413"/>
     <use style="fill:#1f77b4;stroke:#1f77b4;" x="175.763117" xlink:href="#md35d45add2" y="105.750825"/>
     <use style="fill:#1f77b4;stroke:#1f77b4;" x="177.159007" xlink:href="#md35d45add2" y="106.827717"/>
     <use style="fill:#1f77b4;stroke:#1f77b4;" x="177.355414" xlink:href="#md35d45add2" y="106.865722"/>
     <use style="fill:#1f77b4;stroke:#1f77b4;" x="178.88458" xlink:href="#md35d45add2" y="107.538242"/>
     <use style="fill:#1f77b4;stroke:#1f77b4;" x="179.102031" xlink:href="#md35d45add2" y="107.236928"/>
     <use style="fill:#1f77b4;stroke:#1f77b4;" x="180.392703" xlink:href="#md35d45add2" y="108.188227"/>
     <use style="fill:#1f77b4;stroke:#1f77b4;" x="180.561052" xlink:href="#md35d45add2" y="107.890336"/>
     <use style="fill:#1f77b4;stroke:#1f77b4;" x="181.907841" xlink:href="#md35d45add2" y="108.505411"/>
     <use style="fill:#1f77b4;stroke:#1f77b4;" x="182.111262" xlink:href="#md35d45add2" y="108.572466"/>
     <use style="fill:#1f77b4;stroke:#1f77b4;" x="183.451036" xlink:href="#md35d45add2" y="108.874178"/>
     <use style="fill:#1f77b4;stroke:#1f77b4;" x="183.61237" xlink:href="#md35d45add2" y="108.71524"/>
     <use style="fill:#1f77b4;stroke:#1f77b4;" x="184.79081" xlink:href="#md35d45add2" y="109.007887"/>
     <use style="fill:#1f77b4;stroke:#1f77b4;" x="185.001246" xlink:href="#md35d45add2" y="109.465845"/>
     <use style="fill:#1f77b4;stroke:#1f77b4;" x="186.369079" xlink:href="#md35d45add2" y="109.418519"/>
     <use style="fill:#1f77b4;stroke:#1f77b4;" x="186.558471" xlink:href="#md35d45add2" y="109.866866"/>
     <use style="fill:#1f77b4;stroke:#1f77b4;" x="187.771984" xlink:href="#md35d45add2" y="109.826603"/>
     <use style="fill:#1f77b4;stroke:#1f77b4;" x="187.912274" xlink:href="#md35d45add2" y="110.239602"/>
     <use style="fill:#1f77b4;stroke:#1f77b4;" x="189.245034" xlink:href="#md35d45add2" y="109.917792"/>
     <use style="fill:#1f77b4;stroke:#1f77b4;" x="189.45547" xlink:href="#md35d45add2" y="110.685909"/>
     <use style="fill:#1f77b4;stroke:#1f77b4;" x="190.858375" xlink:href="#md35d45add2" y="110.266901"/>
     <use style="fill:#1f77b4;stroke:#1f77b4;" x="191.068811" xlink:href="#md35d45add2" y="110.634396"/>
     <use style="fill:#1f77b4;stroke:#1f77b4;" x="192.471716" xlink:href="#md35d45add2" y="110.370468"/>
     <use style="fill:#1f77b4;stroke:#1f77b4;" x="192.682151" xlink:href="#md35d45add2" y="111.267818"/>
     <use style="fill:#1f77b4;stroke:#1f77b4;" x="193.944766" xlink:href="#md35d45add2" y="110.681353"/>
     <use style="fill:#1f77b4;stroke:#1f77b4;" x="194.085056" xlink:href="#md35d45add2" y="111.262356"/>
     <use style="fill:#1f77b4;stroke:#1f77b4;" x="194.646218" xlink:href="#md35d45add2" y="111.027552"/>
     <use style="fill:#1f77b4;stroke:#1f77b4;" x="194.716364" xlink:href="#md35d45add2" y="110.335882"/>
    </g>
   </g>
   <g id="patch_3">
    <path d="M 36.1425 116.052 
L 36.1425 10.8 
" style="fill:none;stroke:#000000;stroke-linecap:square;stroke-linejoin:miter;stroke-width:0.8;"/>
   </g>
   <g id="patch_4">
    <path d="M 202.2675 116.052 
L 202.2675 10.8 
" style="fill:none;stroke:#000000;stroke-linecap:square;stroke-linejoin:miter;stroke-width:0.8;"/>
   </g>
   <g id="patch_5">
    <path d="M 36.1425 116.052 
L 202.2675 116.052 
" style="fill:none;stroke:#000000;stroke-linecap:square;stroke-linejoin:miter;stroke-width:0.8;"/>
   </g>
   <g id="patch_6">
    <path d="M 36.1425 10.8 
L 202.2675 10.8 
" style="fill:none;stroke:#000000;stroke-linecap:square;stroke-linejoin:miter;stroke-width:0.8;"/>
   </g>
  </g>
  <g id="axes_2">
   <g id="matplotlib.axis_3">
    <g id="ytick_5">
     <g id="line2d_16">
      <defs>
       <path d="M 0 0 
L -3.5 0 
" id="m402c4e73fd" style="stroke:#000000;stroke-width:0.8;"/>
      </defs>
      <g>
       <use style="stroke:#000000;stroke-width:0.8;" x="202.2675" xlink:href="#m402c4e73fd" y="104.201082"/>
      </g>
     </g>
     <g id="text_12">
      <!-- −10 -->
      <g style="fill:#2ca02c;" transform="translate(205.7675 107.064207)scale(0.08 -0.08)">
       <use xlink:href="#ArialMT-2212"/>
       <use x="58.398438" xlink:href="#ArialMT-31"/>
       <use x="114.013672" xlink:href="#ArialMT-30"/>
      </g>
     </g>
    </g>
    <g id="ytick_6">
     <g id="line2d_17">
      <g>
       <use style="stroke:#000000;stroke-width:0.8;" x="202.2675" xlink:href="#m402c4e73fd" y="71.931972"/>
      </g>
     </g>
     <g id="text_13">
      <!-- 0 -->
      <g style="fill:#2ca02c;" transform="translate(205.7675 74.795097)scale(0.08 -0.08)">
       <use xlink:href="#ArialMT-30"/>
      </g>
     </g>
    </g>
    <g id="ytick_7">
     <g id="line2d_18">
      <g>
       <use style="stroke:#000000;stroke-width:0.8;" x="202.2675" xlink:href="#m402c4e73fd" y="39.662863"/>
      </g>
     </g>
     <g id="text_14">
      <!-- 10 -->
      <g style="fill:#2ca02c;" transform="translate(205.7675 42.525988)scale(0.08 -0.08)">
       <use xlink:href="#ArialMT-31"/>
       <use x="55.615234" xlink:href="#ArialMT-30"/>
      </g>
     </g>
    </g>
    <g id="text_15">
     <!-- optical tilt (deg) -->
     <defs>
      <path d="M 4.984375 -4.296875 
L 13.53125 -5.5625 
Q 14.0625 -9.515625 16.5 -11.328125 
Q 19.78125 -13.765625 25.4375 -13.765625 
Q 31.546875 -13.765625 34.859375 -11.328125 
Q 38.1875 -8.890625 39.359375 -4.5 
Q 40.046875 -1.8125 39.984375 6.78125 
Q 34.234375 0 25.640625 0 
Q 14.9375 0 9.078125 7.71875 
Q 3.21875 15.4375 3.21875 26.21875 
Q 3.21875 33.640625 5.90625 39.90625 
Q 8.59375 46.1875 13.6875 49.609375 
Q 18.796875 53.03125 25.6875 53.03125 
Q 34.859375 53.03125 40.828125 45.609375 
L 40.828125 51.859375 
L 48.921875 51.859375 
L 48.921875 7.03125 
Q 48.921875 -5.078125 46.453125 -10.125 
Q 44 -15.1875 38.640625 -18.109375 
Q 33.296875 -21.046875 25.484375 -21.046875 
Q 16.21875 -21.046875 10.5 -16.875 
Q 4.78125 -12.703125 4.984375 -4.296875 
z
M 12.25 26.859375 
Q 12.25 16.65625 16.296875 11.96875 
Q 20.359375 7.28125 26.46875 7.28125 
Q 32.515625 7.28125 36.609375 11.9375 
Q 40.71875 16.609375 40.71875 26.5625 
Q 40.71875 36.078125 36.5 40.90625 
Q 32.28125 45.75 26.3125 45.75 
Q 20.453125 45.75 16.34375 40.984375 
Q 12.25 36.234375 12.25 26.859375 
z
" id="ArialMT-67"/>
     </defs>
     <g style="fill:#2ca02c;" transform="translate(230.617188 97.327562)rotate(-90)scale(0.1 -0.1)">
      <use xlink:href="#ArialMT-6f"/>
      <use x="55.615234" xlink:href="#ArialMT-70"/>
      <use x="111.230469" xlink:href="#ArialMT-74"/>
      <use x="139.013672" xlink:href="#ArialMT-69"/>
      <use x="161.230469" xlink:href="#ArialMT-63"/>
      <use x="211.230469" xlink:href="#ArialMT-61"/>
      <use x="266.845703" xlink:href="#ArialMT-6c"/>
      <use x="289.0625" xlink:href="#ArialMT-20"/>
      <use x="316.845703" xlink:href="#ArialMT-74"/>
      <use x="344.628906" xlink:href="#ArialMT-69"/>
      <use x="366.845703" xlink:href="#ArialMT-6c"/>
      <use x="389.0625" xlink:href="#ArialMT-74"/>
      <use x="416.845703" xlink:href="#ArialMT-20"/>
      <use x="444.628906" xlink:href="#ArialMT-28"/>
      <use x="477.929688" xlink:href="#ArialMT-64"/>
      <use x="533.544922" xlink:href="#ArialMT-65"/>
      <use x="589.160156" xlink:href="#ArialMT-67"/>
      <use x="644.775391" xlink:href="#ArialMT-29"/>
     </g>
    </g>
   </g>
   <g id="line2d_19">
    <defs>
     <path d="M 0 1.5 
C 0.397805 1.5 0.77937 1.341951 1.06066 1.06066 
C 1.341951 0.77937 1.5 0.397805 1.5 0 
C 1.5 -0.397805 1.341951 -0.77937 1.06066 -1.06066 
C 0.77937 -1.341951 0.397805 -1.5 0 -1.5 
C -0.397805 -1.5 -0.77937 -1.341951 -1.06066 -1.06066 
C -1.341951 -0.77937 -1.5 -0.397805 -1.5 0 
C -1.5 0.397805 -1.341951 0.77937 -1.06066 1.06066 
C -0.77937 1.341951 -0.397805 1.5 0 1.5 
z
" id="m94ce2cb5cf" style="stroke:#2ca02c;"/>
    </defs>
    <g clip-path="url(#pb4f565d1b7)">
     <use style="fill:#2ca02c;stroke:#2ca02c;" x="163.267909" xlink:href="#m94ce2cb5cf" y="15.584182"/>
     <use style="fill:#2ca02c;stroke:#2ca02c;" x="71.574769" xlink:href="#m94ce2cb5cf" y="111.267818"/>
     <use style="fill:#2ca02c;stroke:#2ca02c;" x="73.408632" xlink:href="#m94ce2cb5cf" y="106.249419"/>
     <use style="fill:#2ca02c;stroke:#2ca02c;" x="75.242495" xlink:href="#m94ce2cb5cf" y="97.163704"/>
     <use style="fill:#2ca02c;stroke:#2ca02c;" x="77.076358" xlink:href="#m94ce2cb5cf" y="83.46062"/>
     <use style="fill:#2ca02c;stroke:#2ca02c;" x="78.910221" xlink:href="#m94ce2cb5cf" y="71.18872"/>
     <use style="fill:#2ca02c;stroke:#2ca02c;" x="80.744083" xlink:href="#m94ce2cb5cf" y="70.734914"/>
     <use style="fill:#2ca02c;stroke:#2ca02c;" x="82.577946" xlink:href="#m94ce2cb5cf" y="71.732831"/>
     <use style="fill:#2ca02c;stroke:#2ca02c;" x="84.411809" xlink:href="#m94ce2cb5cf" y="71.913745"/>
     <use style="fill:#2ca02c;stroke:#2ca02c;" x="86.245672" xlink:href="#m94ce2cb5cf" y="72.729908"/>
     <use style="fill:#2ca02c;stroke:#2ca02c;" x="88.079534" xlink:href="#m94ce2cb5cf" y="72.458122"/>
     <use style="fill:#2ca02c;stroke:#2ca02c;" x="89.913397" xlink:href="#m94ce2cb5cf" y="72.186068"/>
     <use style="fill:#2ca02c;stroke:#2ca02c;" x="91.74726" xlink:href="#m94ce2cb5cf" y="73.455528"/>
     <use style="fill:#2ca02c;stroke:#2ca02c;" x="93.581123" xlink:href="#m94ce2cb5cf" y="71.279316"/>
     <use style="fill:#2ca02c;stroke:#2ca02c;" x="95.414986" xlink:href="#m94ce2cb5cf" y="73.274048"/>
     <use style="fill:#2ca02c;stroke:#2ca02c;" x="97.248848" xlink:href="#m94ce2cb5cf" y="73.27432"/>
     <use style="fill:#2ca02c;stroke:#2ca02c;" x="99.082711" xlink:href="#m94ce2cb5cf" y="73.274048"/>
     <use style="fill:#2ca02c;stroke:#2ca02c;" x="100.916574" xlink:href="#m94ce2cb5cf" y="71.823424"/>
     <use style="fill:#2ca02c;stroke:#2ca02c;" x="102.750437" xlink:href="#m94ce2cb5cf" y="72.27639"/>
     <use style="fill:#2ca02c;stroke:#2ca02c;" x="104.5843" xlink:href="#m94ce2cb5cf" y="73.092845"/>
     <use style="fill:#2ca02c;stroke:#2ca02c;" x="106.418162" xlink:href="#m94ce2cb5cf" y="72.094931"/>
     <use style="fill:#2ca02c;stroke:#2ca02c;" x="108.252025" xlink:href="#m94ce2cb5cf" y="73.092845"/>
     <use style="fill:#2ca02c;stroke:#2ca02c;" x="110.085888" xlink:href="#m94ce2cb5cf" y="72.729908"/>
     <use style="fill:#2ca02c;stroke:#2ca02c;" x="111.919751" xlink:href="#m94ce2cb5cf" y="72.910831"/>
     <use style="fill:#2ca02c;stroke:#2ca02c;" x="113.753614" xlink:href="#m94ce2cb5cf" y="74.543739"/>
     <use style="fill:#2ca02c;stroke:#2ca02c;" x="115.587476" xlink:href="#m94ce2cb5cf" y="73.817962"/>
     <use style="fill:#2ca02c;stroke:#2ca02c;" x="117.421339" xlink:href="#m94ce2cb5cf" y="73.727623"/>
     <use style="fill:#2ca02c;stroke:#2ca02c;" x="119.255202" xlink:href="#m94ce2cb5cf" y="73.183718"/>
     <use style="fill:#2ca02c;stroke:#2ca02c;" x="121.089065" xlink:href="#m94ce2cb5cf" y="71.369639"/>
     <use style="fill:#2ca02c;stroke:#2ca02c;" x="122.922928" xlink:href="#m94ce2cb5cf" y="74.634914"/>
     <use style="fill:#2ca02c;stroke:#2ca02c;" x="124.75679" xlink:href="#m94ce2cb5cf" y="74.634642"/>
     <use style="fill:#2ca02c;stroke:#2ca02c;" x="126.590653" xlink:href="#m94ce2cb5cf" y="71.279044"/>
     <use style="fill:#2ca02c;stroke:#2ca02c;" x="128.424516" xlink:href="#m94ce2cb5cf" y="73.27432"/>
     <use style="fill:#2ca02c;stroke:#2ca02c;" x="130.258379" xlink:href="#m94ce2cb5cf" y="73.909391"/>
     <use style="fill:#2ca02c;stroke:#2ca02c;" x="132.092242" xlink:href="#m94ce2cb5cf" y="73.999462"/>
     <use style="fill:#2ca02c;stroke:#2ca02c;" x="133.926104" xlink:href="#m94ce2cb5cf" y="74.181242"/>
     <use style="fill:#2ca02c;stroke:#2ca02c;" x="135.759967" xlink:href="#m94ce2cb5cf" y="73.999734"/>
     <use style="fill:#2ca02c;stroke:#2ca02c;" x="137.59383" xlink:href="#m94ce2cb5cf" y="73.093117"/>
     <use style="fill:#2ca02c;stroke:#2ca02c;" x="139.427693" xlink:href="#m94ce2cb5cf" y="74.725547"/>
     <use style="fill:#2ca02c;stroke:#2ca02c;" x="141.261556" xlink:href="#m94ce2cb5cf" y="73.455256"/>
     <use style="fill:#2ca02c;stroke:#2ca02c;" x="143.095418" xlink:href="#m94ce2cb5cf" y="72.366984"/>
     <use style="fill:#2ca02c;stroke:#2ca02c;" x="144.929281" xlink:href="#m94ce2cb5cf" y="72.911647"/>
     <use style="fill:#2ca02c;stroke:#2ca02c;" x="146.763144" xlink:href="#m94ce2cb5cf" y="71.188448"/>
     <use style="fill:#2ca02c;stroke:#2ca02c;" x="148.597007" xlink:href="#m94ce2cb5cf" y="73.364923"/>
     <use style="fill:#2ca02c;stroke:#2ca02c;" x="150.430869" xlink:href="#m94ce2cb5cf" y="72.367256"/>
     <use style="fill:#2ca02c;stroke:#2ca02c;" x="152.264732" xlink:href="#m94ce2cb5cf" y="72.639312"/>
     <use style="fill:#2ca02c;stroke:#2ca02c;" x="154.098595" xlink:href="#m94ce2cb5cf" y="72.27639"/>
     <use style="fill:#2ca02c;stroke:#2ca02c;" x="155.932458" xlink:href="#m94ce2cb5cf" y="58.81128"/>
     <use style="fill:#2ca02c;stroke:#2ca02c;" x="157.766321" xlink:href="#m94ce2cb5cf" y="40.862674"/>
     <use style="fill:#2ca02c;stroke:#2ca02c;" x="159.600183" xlink:href="#m94ce2cb5cf" y="26.281146"/>
     <use style="fill:#2ca02c;stroke:#2ca02c;" x="161.434046" xlink:href="#m94ce2cb5cf" y="19.33677"/>
    </g>
   </g>
   <g id="patch_7">
    <path d="M 36.1425 116.052 
L 36.1425 10.8 
" style="fill:none;stroke:#000000;stroke-linecap:square;stroke-linejoin:miter;stroke-width:0.8;"/>
   </g>
   <g id="patch_8">
    <path d="M 202.2675 116.052 
L 202.2675 10.8 
" style="fill:none;stroke:#000000;stroke-linecap:square;stroke-linejoin:miter;stroke-width:0.8;"/>
   </g>
   <g id="patch_9">
    <path d="M 36.1425 116.052 
L 202.2675 116.052 
" style="fill:none;stroke:#000000;stroke-linecap:square;stroke-linejoin:miter;stroke-width:0.8;"/>
   </g>
   <g id="patch_10">
    <path d="M 36.1425 10.8 
L 202.2675 10.8 
" style="fill:none;stroke:#000000;stroke-linecap:square;stroke-linejoin:miter;stroke-width:0.8;"/>
   </g>
  </g>
 </g>
 <defs>
  <clipPath id="pb4f565d1b7">
   <rect height="105.252" width="166.125" x="36.1425" y="10.8"/>
  </clipPath>
 </defs>
</svg>
